<?xml version="1.0" standalone="no"?>
<!DOCTYPE svg PUBLIC "-//W3C//DTD SVG 20010904//EN"
 "http://www.w3.org/TR/2001/REC-SVG-20010904/DTD/svg10.dtd">
<svg version="1.0" xmlns="http://www.w3.org/2000/svg"
 width="612.000000pt" height="612.000000pt" viewBox="0 0 612.000000 612.000000"
 preserveAspectRatio="xMidYMid meet">

<g transform="translate(0.000000,612.000000) scale(0.100000,-0.100000)"
fill="#000000" stroke="none">
<path d="M132 6053 c2 -48 7 -67 16 -65 6 1 12 -5 12 -13 0 -11 11 -15 39 -15
39 0 39 0 42 -42 l4 -43 -47 3 -47 4 -3 46 c-2 33 -6 17 -11 -53 -13 -162 -8
-152 -77 -147 l-60 4 0 -55 0 -56 128 0 127 -1 -2 83 c-1 45 1 101 4 125 l5
42 59 0 58 0 3 63 3 62 63 3 62 3 0 -131 0 -130 66 0 65 0 -5 123 c-3 67 -8
154 -13 192 l-7 70 -6 -45 -7 -45 -1 43 c-1 23 -7 42 -13 42 -7 0 -10 -21 -7
-60 1 -33 0 -60 -4 -60 -5 0 -8 27 -8 60 l0 60 -95 0 -95 0 0 -55 c0 -59 6
-54 -74 -70 -33 -7 -46 14 -46 71 l0 54 -65 0 -66 0 3 -67z m408 -23 c0 -5 -4
-10 -10 -10 -5 0 -10 5 -10 10 0 6 5 10 10 10 6 0 10 -4 10 -10z"/>
<path d="M770 6083 c0 -75 6 -82 69 -85 l56 -3 2 -110 c1 -60 2 -118 3 -128 0
-15 8 -18 55 -16 31 1 55 7 55 13 0 6 2 91 5 189 l4 177 -124 0 -125 0 0 -37z
m227 -295 c-3 -8 -6 -5 -6 6 -1 11 2 17 5 13 3 -3 4 -12 1 -19z"/>
<path d="M1150 6056 c0 -52 3 -65 18 -69 9 -2 25 -8 35 -12 12 -5 17 -2 17 11
0 35 10 6 18 -54 7 -49 6 -62 -5 -62 -9 0 -14 15 -15 48 l-1 47 -7 -50 -7 -50
-3 50 -3 50 -7 -50 -7 -50 -2 45 c-1 25 -5 51 -10 58 -4 7 -6 -12 -3 -43 3
-38 1 -55 -7 -55 -8 0 -11 -21 -9 -66 l3 -66 58 -3 c31 -1 60 2 63 6 8 14 82
11 87 -3 2 -7 3 4 3 24 -1 38 -1 38 -46 39 l-45 2 45 6 c46 6 67 -6 57 -33 -3
-7 -1 -19 4 -27 6 -9 9 6 7 46 l-3 60 -50 3 c-80 5 -76 -3 -69 137 l7 125 -61
0 -62 0 0 -64z m107 -88 c-3 -8 -6 -5 -6 6 -1 11 2 17 5 13 3 -3 4 -12 1 -19z
m86 -135 c-13 -2 -33 -2 -45 0 -13 2 -3 4 22 4 25 0 35 -2 23 -4z"/>
<path d="M2045 5990 l7 -129 -68 -3 -69 -3 0 -125 0 -125 -46 -3 c-36 -2 -49
-8 -58 -25 -11 -22 -11 -22 -8 3 2 25 0 25 -76 28 l-78 3 3 62 3 62 65 5 65 5
0 60 0 60 -127 2 -128 2 0 -70 0 -69 -65 0 -66 0 3 -122 3 -123 63 -3 62 -3 0
34 c0 73 10 95 44 99 69 7 75 3 78 -65 l3 -62 68 -3 c46 -2 67 1 67 9 0 6 6 9
14 6 10 -4 16 2 19 16 4 22 4 22 6 -1 0 -13 5 -20 11 -17 5 3 24 3 42 0 l33
-6 -1 -62 c-1 -34 -2 -67 -3 -72 -1 -6 -27 -9 -62 -7 l-60 2 3 -57 3 -58 123
-3 122 -2 0 122 c0 68 -4 128 -8 134 -4 6 -25 11 -47 13 -22 1 -65 6 -95 10
-45 7 -37 8 43 5 l97 -4 0 107 c0 60 4 114 9 122 6 10 27 15 63 14 45 0 47 1
11 4 -35 3 -43 8 -43 24 0 10 -4 19 -8 19 -4 0 -8 12 -7 28 0 26 2 27 48 24
26 -2 53 1 60 6 7 6 37 12 67 14 l55 3 3 53 c3 48 1 52 -20 53 -13 1 -38 3
-55 5 -25 2 -33 -2 -33 -14 0 -8 -3 -12 -7 -8 -4 3 -6 40 -5 81 l2 75 -66 0
-66 0 7 -130z m-26 -407 c0 -25 -1 -25 -8 -8 -5 11 -7 23 -4 28 8 14 13 7 12
-20z m-19 -13 c0 -5 -22 -10 -50 -10 -27 0 -50 5 -50 10 0 6 23 10 50 10 28 0
50 -4 50 -10z m10 -27 c0 -5 -24 -7 -52 -5 -89 5 -97 9 -20 11 39 0 72 -2 72
-6z"/>
<path d="M2552 6063 l3 -58 58 -3 57 -3 0 61 0 60 -60 0 -61 0 3 -57z"/>
<path d="M2863 6080 c0 -25 2 -35 4 -22 2 12 2 32 0 45 -2 12 -4 2 -4 -23z"/>
<path d="M2890 6078 c-3 -26 -1 -43 3 -39 5 5 7 26 5 47 l-3 39 -5 -47z"/>
<path d="M3060 6013 c0 -60 3 -145 6 -189 l7 -82 53 -1 54 0 0 58 c0 32 3 61
6 64 4 4 7 33 8 64 l1 58 58 0 57 0 0 68 0 67 -125 0 -125 0 0 -107z"/>
<path d="M3578 6073 c-3 -27 -3 -54 0 -60 5 -15 122 -18 122 -4 0 5 10 12 23
14 l22 4 -22 2 c-20 1 -23 6 -23 46 l0 45 -59 0 -59 0 -4 -47z"/>
<path d="M3803 6080 c0 -25 2 -35 4 -22 2 12 2 32 0 45 -2 12 -4 2 -4 -23z"/>
<path d="M3992 6063 c-1 -45 -6 -63 -15 -63 -13 0 -27 -118 -27 -227 l0 -33
65 0 65 0 0 60 0 60 64 0 65 0 3 88 c2 48 2 106 0 130 l-3 42 -65 0 -64 0 0
-50 0 -50 -39 0 -40 0 -4 53 -3 52 -2 -62z"/>
<path d="M4330 5987 l0 -132 -45 3 c-55 5 -74 -9 -73 -51 2 -71 3 -72 55 -69
26 2 55 5 63 8 13 4 13 6 0 14 -12 8 -9 10 10 11 l25 1 -25 8 c-14 4 -20 8
-13 9 7 1 24 13 40 27 l28 26 -28 -7 c-29 -8 -39 8 -11 19 43 16 114 0 99 -23
-5 -9 -10 -9 -21 0 -22 18 -16 1 8 -23 l22 -22 -24 -7 -25 -6 25 -5 c22 -5 21
-5 -7 -7 -18 0 -33 4 -33 9 0 6 -5 10 -11 10 -5 0 -8 -4 -4 -9 3 -5 -5 -11
-17 -13 -13 -2 27 -8 89 -12 61 -4 116 -5 122 -1 6 3 11 31 11 61 0 59 2 57
-69 54 -27 -1 -47 3 -52 12 -5 7 -9 66 -9 131 l0 117 -65 0 -65 0 0 -133z"/>
<path d="M4590 6060 l0 -60 111 0 c84 0 110 3 107 13 -3 6 -22 15 -44 18 -29
5 -25 6 16 3 l55 -3 -3 44 -4 45 -119 0 -119 0 0 -60z"/>
<path d="M4980 6038 c0 -100 16 -94 26 10 6 63 4 72 -10 72 -13 0 -16 -13 -16
-82z"/>
<path d="M5020 6061 c0 -44 4 -60 16 -65 29 -11 36 -6 32 19 -3 14 -2 25 2 25
4 0 10 -13 13 -28 6 -28 7 -28 69 -26 l63 3 3 65 3 66 -101 0 -100 0 0 -59z"/>
<path d="M5360 6050 l0 -70 38 0 c21 0 43 5 50 12 9 9 12 7 12 -11 0 -12 -3
-20 -7 -18 -5 3 -6 -17 -5 -44 2 -27 8 -49 13 -49 10 0 13 51 10 213 l-1 37
-55 0 -55 0 0 -70z"/>
<path d="M5642 6085 c0 -22 3 -49 8 -60 7 -19 8 -18 15 6 3 14 5 41 2 60 -3
31 -4 30 -7 -11 l-3 -45 -7 45 -7 45 -1 -40z"/>
<path d="M5734 6068 c4 -29 9 -85 13 -125 7 -86 14 -82 -147 -86 l-105 -2 0
-55 0 -55 52 3 c70 5 74 -5 66 -152 l-6 -116 -64 0 -63 0 0 65 0 65 -60 0 -59
0 -3 -62 -3 -63 -62 -3 -63 -3 0 -59 0 -60 65 0 65 0 0 60 0 60 60 0 61 0 -3
-170 -3 -170 -60 -2 -60 -2 58 -3 c32 -2 55 -8 52 -13 -3 -5 3 -11 12 -14 15
-5 17 -15 15 -66 l-4 -61 59 3 58 3 0 55 c0 30 4 58 8 61 8 6 330 4 357 -2 12
-3 15 8 15 61 l0 65 -188 0 -189 0 0 60 c0 33 0 90 1 126 l1 66 118 7 c159 10
170 7 175 -52 l3 -47 2 48 c2 34 6 47 17 47 11 0 15 -11 15 -39 0 -22 3 -42 8
-44 4 -3 5 15 3 39 -2 26 1 44 7 44 6 0 13 -19 15 -42 l4 -43 1 43 2 42 70 0
70 0 0 65 0 65 -63 0 c-35 0 -67 3 -71 8 -4 4 -20 7 -34 7 -24 0 -28 5 -33 45
l-7 45 3 -52 c1 -45 -1 -53 -16 -53 -21 0 -35 54 -26 99 3 15 1 33 -4 38 -8 8
-7 13 0 17 6 4 8 20 4 38 -6 29 -5 31 20 26 40 -8 34 18 -5 27 -18 3 -54 9
-80 12 l-48 5 0 53 0 52 53 8 c28 4 76 8 105 10 30 2 56 6 59 9 4 3 8 31 11
61 l4 55 -132 0 -133 0 7 -52z"/>
<path d="M2821 6024 c0 -11 3 -14 6 -6 3 7 2 16 -1 19 -3 4 -6 -2 -5 -13z"/>
<path d="M2911 6024 c0 -11 3 -14 6 -6 3 7 2 16 -1 19 -3 4 -6 -2 -5 -13z"/>
<path d="M5621 6024 c0 -11 3 -14 6 -6 3 7 2 16 -1 19 -3 4 -6 -2 -5 -13z"/>
<path d="M2840 6010 c0 -5 5 -10 10 -10 6 0 10 5 10 10 0 6 -4 10 -10 10 -5 0
-10 -4 -10 -10z"/>
<path d="M3753 6002 l-53 -3 0 -65 0 -64 59 0 59 0 4 57 c1 31 -1 61 -7 67 -6
6 -33 10 -62 8z"/>
<path d="M2434 5984 c-13 -5 -7 -92 7 -110 10 -12 87 -10 100 3 6 6 9 32 7 59
l-3 49 -50 2 c-27 1 -55 0 -61 -3z"/>
<path d="M3452 5981 c-4 -3 -7 -30 -7 -58 -1 -29 -2 -109 -3 -177 l-2 -124
-45 -4 c-25 -2 -50 1 -55 6 -6 6 -10 6 -11 1 -1 -6 -2 -17 -3 -25 -2 -8 -3
-39 -4 -67 l-2 -53 -65 0 -66 0 3 -57 3 -58 75 -3 c41 -2 117 0 168 3 l92 7 0
54 0 53 83 3 82 3 0 63 0 62 30 1 c17 1 44 0 62 -1 37 -2 47 19 41 86 l-3 39
-65 0 -65 0 -3 -57 -3 -58 -53 0 c-40 0 -55 4 -60 16 -3 9 -6 85 -6 170 0 102
-4 154 -11 154 -5 0 -8 4 -4 9 3 5 1 12 -5 16 -5 3 -10 -2 -10 -12 0 -14 -2
-15 -9 -5 -8 14 -65 23 -79 13z m68 -551 l0 -50 -40 0 -40 0 0 50 0 50 40 0
40 0 0 -50z"/>
<path d="M5843 5925 c0 -27 2 -38 4 -22 2 15 2 37 0 50 -2 12 -4 0 -4 -28z"/>
<path d="M5026 5873 c-3 -3 -168 -11 -243 -12 l-62 -1 -3 -62 -3 -63 -57 -3
-57 -3 -3 -62 -3 -62 -62 -5 c-33 -3 -60 -3 -58 1 2 3 -26 5 -63 4 l-67 0 -3
-58 -3 -57 71 0 c40 0 70 4 70 10 0 6 -5 10 -11 10 -8 0 -8 5 1 15 7 9 29 15
51 15 22 0 39 5 39 10 0 6 4 10 10 10 5 0 7 -7 3 -16 -3 -8 0 -26 8 -40 12
-23 18 -25 73 -22 l61 3 3 63 3 62 64 0 65 0 0 59 0 59 63 7 c34 3 117 6 185
5 l123 0 -3 66 -3 66 -93 1 c-52 1 -95 1 -96 0z m-438 -292 c16 -10 -30 -21
-84 -21 -52 0 -40 18 14 23 26 2 49 4 52 5 3 1 11 -2 18 -7z"/>
<path d="M2290 5805 l0 -65 70 0 70 0 0 65 0 65 -70 0 -70 0 0 -65z"/>
<path d="M5991 5852 c-6 -11 -9 -27 -9 -38 1 -10 -2 -29 -6 -40 -8 -26 13 -34
92 -34 l52 0 0 65 0 65 -60 0 c-47 0 -61 -4 -69 -18z"/>
<path d="M5936 5831 c-4 -5 -2 -12 3 -15 5 -4 12 -2 15 3 4 5 2 12 -3 15 -5 4
-12 2 -15 -3z"/>
<path d="M2076 5815 c-4 -12 4 -15 39 -15 33 0 45 4 45 15 0 11 -11 15 -39 15
-25 0 -41 -5 -45 -15z"/>
<path d="M4380 5800 c-18 -12 -2 -12 25 0 13 6 15 9 5 9 -8 0 -22 -4 -30 -9z"/>
<path d="M2098 5783 c12 -2 32 -2 45 0 12 2 2 4 -23 4 -25 0 -35 -2 -22 -4z"/>
<path d="M5900 5750 c0 -5 5 -10 10 -10 6 0 10 5 10 10 0 6 -4 10 -10 10 -5 0
-10 -4 -10 -10z"/>
<path d="M2940 5676 l0 -56 56 0 55 0 -3 53 -3 52 -52 3 -53 3 0 -55z"/>
<path d="M3583 5685 c0 -27 2 -38 4 -22 2 15 2 37 0 50 -2 12 -4 0 -4 -28z"/>
<path d="M743 5680 c0 -25 2 -35 4 -22 2 12 2 32 0 45 -2 12 -4 2 -4 -23z"/>
<path d="M5933 5680 c0 -25 2 -35 4 -22 2 12 2 32 0 45 -2 12 -4 2 -4 -23z"/>
<path d="M5973 5680 c0 -25 2 -35 4 -22 2 12 2 32 0 45 -2 12 -4 2 -4 -23z"/>
<path d="M720 5633 c0 -8 -15 -13 -40 -13 -44 0 -43 2 -44 -80 l-1 -55 -57 -3
c-53 -3 -58 -1 -63 20 -3 13 -5 42 -3 63 l3 40 -63 3 c-44 2 -64 -1 -67 -10
-3 -7 -6 -92 -8 -188 l-2 -175 -60 0 -60 0 -1 -67 0 -68 63 0 c70 0 66 -6 63
85 l-1 50 123 0 123 0 3 67 3 67 62 3 62 3 -3 53 -4 52 75 0 c81 0 84 2 83 58
-1 17 2 32 7 32 4 0 7 -9 7 -20 0 -11 5 -20 11 -20 6 0 8 7 5 16 -4 11 1 18
14 21 11 3 20 9 20 14 0 5 5 9 10 9 6 0 10 -7 10 -15 0 -8 4 -15 9 -15 6 0 9
9 8 20 -1 17 -8 20 -47 19 -37 -1 -41 -2 -20 -9 24 -8 23 -8 -8 -9 -21 -1 -31
3 -30 12 2 8 -19 13 -76 15 -61 2 -83 7 -92 20 -8 11 -13 12 -14 5z m18 -200
l-3 -48 -50 -1 -50 -2 45 8 45 7 -42 1 -43 2 0 40 0 40 51 0 50 0 -3 -47z"/>
<path d="M2353 5602 l-52 -3 2 -57 2 -57 -67 -3 -68 -3 0 -67 0 -67 52 2 c77
4 78 5 78 73 l0 60 60 0 60 0 0 50 c0 33 -4 50 -12 50 -10 0 -9 3 1 9 19 12 3
16 -56 13z"/>
<path d="M2552 5423 l3 -188 185 0 185 0 3 123 3 122 -126 0 -125 0 0 65 0 65
-65 0 -65 0 2 -187z"/>
<path d="M5065 5590 c4 -6 11 -8 16 -5 14 9 11 15 -7 15 -8 0 -12 -5 -9 -10z"/>
<path d="M5030 5576 c0 -7 7 -13 15 -13 8 0 15 4 15 8 0 4 -7 9 -15 13 -9 3
-15 0 -15 -8z"/>
<path d="M990 5530 c0 -11 5 -20 10 -20 6 0 10 9 10 20 0 11 -4 20 -10 20 -5
0 -10 -9 -10 -20z"/>
<path d="M920 5505 c0 -17 9 -19 28 -6 11 7 10 10 -3 15 -23 9 -25 8 -25 -9z"/>
<path d="M5071 5508 c-1 -14 -9 -17 -46 -14 -52 5 -58 -6 -53 -90 l3 -49 63
-3 62 -3 0 -59 0 -58 56 -4 c30 -1 59 1 65 7 10 10 12 68 3 100 -4 18 -13 20
-62 20 l-57 0 -3 68 c-2 37 -7 67 -12 67 -5 0 -11 8 -13 18 -4 16 -5 16 -6 0z"/>
<path d="M1280 5414 l0 -66 53 4 c28 1 55 8 59 13 4 6 8 34 8 63 l0 52 -60 0
-60 0 0 -66z"/>
<path d="M1579 5438 c-2 -25 -1 -44 4 -41 4 2 7 -5 7 -16 0 -12 -2 -21 -4 -21
-2 0 -11 -3 -19 -6 -11 -4 -17 2 -20 23 l-4 28 -2 -27 c-1 -28 -2 -28 -70 -28
l-69 0 -4 -60 -3 -60 68 0 67 0 0 -65 0 -65 -69 0 -70 0 6 -34 c3 -19 3 -46
-1 -60 -6 -24 -11 -26 -61 -26 -37 0 -55 -4 -56 -12 -1 -7 -2 -38 -3 -68 l-1
-55 -64 -2 c-35 -2 -66 -4 -67 -6 -2 -1 -4 -25 -5 -53 l-2 -50 -56 2 -56 3 55
-9 c30 -4 88 -8 128 -9 l72 -1 0 66 0 66 60 -4 60 -4 1 40 c2 87 -2 81 64 81
l60 0 3 -63 3 -63 -58 2 -58 3 0 -60 0 -59 65 -2 c36 -1 145 1 243 4 l177 6
-2 56 c-1 50 -2 51 -5 14 -5 -54 -23 -56 -23 -3 l0 40 -105 0 -105 0 0 28 c0
15 -3 44 -6 65 l-7 37 -58 0 -59 0 0 65 0 64 62 3 c74 4 70 -6 61 173 -4 72
-9 120 -11 108 -2 -13 -8 -23 -13 -23 -5 0 -10 10 -10 23 -1 17 -3 16 -8 -8
-7 -26 -8 -23 -15 30 -10 83 -13 87 -17 33z m285 -686 c3 -5 -16 -9 -42 -9
-45 -1 -45 -1 -12 7 19 4 38 8 42 9 4 0 9 -3 12 -7z"/>
<path d="M4080 5415 l0 -65 -60 0 -61 0 3 -57 3 -58 117 -3 117 -3 3 63 3 63
60 5 60 5 3 58 3 57 -126 0 -125 0 0 -65z"/>
<path d="M3541 5384 c0 -11 3 -14 6 -6 3 7 2 16 -1 19 -3 4 -6 -2 -5 -13z"/>
<path d="M5940 5370 c0 -5 5 -10 10 -10 6 0 10 5 10 10 0 6 -4 10 -10 10 -5 0
-10 -4 -10 -10z"/>
<path d="M4594 5314 c-11 -73 -7 -79 64 -82 l63 -3 -3 58 -3 58 -57 5 -57 5
-7 -41z"/>
<path d="M780 5295 c0 -32 2 -56 4 -54 8 7 10 98 3 105 -4 4 -7 -19 -7 -51z"/>
<path d="M895 5340 c-16 -7 -10 -9 25 -10 25 -1 37 -4 28 -7 -14 -3 -18 -15
-18 -49 0 -38 3 -45 18 -42 12 2 19 17 23 53 3 28 4 53 2 58 -6 9 -53 8 -78
-3z"/>
<path d="M3065 5316 c-4 -18 -5 -44 -3 -57 3 -22 8 -24 61 -26 l57 -3 0 60 0
60 -55 0 c-54 0 -54 0 -60 -34z"/>
<path d="M4341 5291 l-2 -58 58 1 58 1 3 56 3 57 -59 1 -59 0 -2 -58z m101 2
c-5 -59 -10 -63 -11 -10 -1 26 3 47 7 47 4 0 6 -17 4 -37z"/>
<path d="M984 5316 c-3 -13 -4 -37 -1 -52 3 -22 5 -19 7 16 l3 45 7 -45 7 -45
1 53 c2 53 -13 71 -24 28z"/>
<path d="M3608 5333 c18 -2 45 -2 60 0 15 2 0 4 -33 4 -33 0 -45 -2 -27 -4z"/>
<path d="M4871 5329 c13 -8 97 -13 88 -5 -2 2 -26 6 -53 9 -30 3 -43 1 -35 -4z"/>
<path d="M5378 5323 c12 -2 32 -2 45 0 12 2 2 4 -23 4 -25 0 -35 -2 -22 -4z"/>
<path d="M880 5280 c0 -22 2 -40 4 -40 2 0 11 -3 20 -6 13 -5 16 2 16 40 0 39
-3 46 -20 46 -17 0 -20 -7 -20 -40z"/>
<path d="M3586 5243 c-4 -43 -9 -85 -12 -94 -7 -26 23 -49 64 -49 58 0 59 3
49 118 l-10 102 -42 0 -43 0 -6 -77z"/>
<path d="M4854 5228 c-3 -4 -5 -34 -5 -66 0 -32 -4 -63 -7 -69 -5 -7 -40 -7
-113 0 -58 6 -113 7 -123 4 -14 -6 -17 -18 -16 -59 1 -29 -2 -64 -6 -76 -6
-22 -12 -23 -60 -20 -30 1 -54 0 -54 -4 0 -5 20 -8 45 -8 25 0 45 -5 45 -11 0
-5 4 -8 9 -4 5 3 9 -7 9 -23 -1 -28 -2 -29 -52 -26 l-51 3 55 -11 c30 -6 84
-11 120 -12 l65 -1 2 70 c1 39 2 91 2 118 l1 47 40 0 40 0 0 -40 c0 -31 4 -40
18 -41 15 0 14 -2 -3 -9 -13 -6 9 -8 64 -7 l84 2 2 125 2 125 -55 0 c-29 0
-56 -3 -58 -7z"/>
<path d="M1165 5222 c-18 -2 -20 -8 -15 -60 l5 -57 63 -3 62 -3 0 61 c0 55 -2
60 -22 62 -48 3 -74 3 -93 0z"/>
<path d="M3315 5218 c-6 -19 -8 -38 -6 -80 l1 -38 65 0 65 0 0 -125 0 -125 60
0 c40 0 61 4 62 13 7 44 1 223 -7 229 -5 4 -34 8 -62 8 l-53 0 0 65 0 65 -60
0 c-40 0 -62 -4 -65 -12z"/>
<path d="M0 5149 l0 -72 60 6 60 7 0 -53 c0 -30 3 -57 7 -61 4 -4 7 -35 8 -69
l0 -62 56 -3 57 -3 -2 128 -1 128 -65 3 c-36 2 -69 7 -74 13 -6 6 -6 9 2 9 7
0 11 17 9 48 l-2 47 -57 3 -58 3 0 -72z m100 51 c0 -5 -4 -10 -10 -10 -5 0
-10 5 -10 10 0 6 5 10 10 10 6 0 10 -4 10 -10z m4 -45 c3 -9 0 -15 -8 -15 -7
0 -13 7 -13 15 0 8 4 15 8 15 4 0 9 -7 13 -15z"/>
<path d="M2428 5213 c7 -3 16 -2 19 1 4 3 -2 6 -13 5 -11 0 -14 -3 -6 -6z"/>
<path d="M3878 5213 c44 -3 52 -7 52 -24 0 -16 -7 -19 -44 -19 -44 0 -44 0
-48 -39 -2 -21 -2 -60 0 -85 l4 -46 39 0 c22 0 39 -5 39 -11 0 -7 -17 -10 -45
-7 l-45 3 0 -72 0 -73 60 0 60 0 0 -60 0 -60 65 0 65 0 0 65 0 65 43 1 c40 1
70 -1 74 -5 1 -1 3 -30 5 -64 l2 -62 68 0 68 0 0 -65 0 -65 63 0 62 0 -5 127
-5 128 -56 3 -56 3 -9 122 c-9 118 -10 122 -33 125 -13 2 -39 1 -58 -3 l-34
-6 2 -53 c1 -29 -1 -58 -5 -64 -4 -7 -32 -12 -67 -12 l-59 0 0 -54 0 -54 -60
-4 -60 -3 0 57 c0 32 -6 62 -12 70 -9 9 -13 50 -13 131 l1 117 -56 -2 -55 -2
53 -3z"/>
<path d="M2488 5143 c12 -2 30 -2 40 0 9 3 -1 5 -23 4 -22 0 -30 -2 -17 -4z"/>
<path d="M2443 5123 c9 -2 23 -2 30 0 6 3 -1 5 -18 5 -16 0 -22 -2 -12 -5z"/>
<path d="M5378 5113 c12 -2 32 -2 45 0 12 2 2 4 -23 4 -25 0 -35 -2 -22 -4z"/>
<path d="M833 5093 l-63 -4 0 -44 c0 -33 4 -45 15 -45 11 0 15 11 15 40 l0 40
40 0 c40 0 40 0 40 -39 0 -39 0 -39 -47 -46 -27 -3 -81 -8 -120 -11 l-73 -6 0
-129 0 -129 60 0 c41 0 60 4 61 13 0 6 2 35 4 62 4 70 15 158 20 174 5 13 62
12 201 -4 13 -1 27 2 30 6 3 5 31 9 63 9 l58 0 2 60 2 60 -123 -2 c-68 -1
-151 -3 -185 -5z"/>
<path d="M1914 5076 c-3 -13 -4 -38 -2 -57 l3 -34 63 -3 62 -3 0 61 0 60 -60
0 c-54 0 -60 -2 -66 -24z"/>
<path d="M5241 5043 c1 -53 6 -49 11 10 2 20 0 37 -4 37 -4 0 -8 -21 -7 -47z"/>
<path d="M5270 5046 c0 -25 5 -46 10 -46 6 0 10 18 10 39 0 22 -4 43 -10 46
-6 4 -10 -12 -10 -39z"/>
<path d="M5295 5035 c0 -50 2 -55 23 -55 20 0 22 5 22 55 0 30 -3 55 -8 55 -4
0 -6 -21 -5 -47 l1 -48 -6 44 c-10 64 -27 61 -27 -4z"/>
<path d="M90 5040 c0 -22 5 -40 10 -40 6 0 10 18 10 40 0 22 -4 40 -10 40 -5
0 -10 -18 -10 -40z"/>
<path d="M2955 4991 c7 -13 -27 -31 -57 -31 -16 0 -19 -3 -10 -9 8 -4 27 -7
43 -5 20 3 29 -1 29 -11 0 -10 11 -15 34 -15 64 0 83 22 52 63 -14 18 -103 26
-91 8z m68 -28 c-13 -2 -33 -2 -45 0 -13 2 -3 4 22 4 25 0 35 -2 23 -4z"/>
<path d="M2199 4960 c-19 -5 -24 -13 -26 -40 -1 -19 4 -38 10 -42 9 -6 9 -8 0
-8 -7 0 -13 -4 -13 -8 0 -5 27 -9 60 -9 l60 0 0 52 c0 52 0 53 -33 57 -18 2
-44 1 -58 -2z m-2 -52 c-3 -7 -5 -2 -5 12 0 14 2 19 5 13 2 -7 2 -19 0 -25z"/>
<path d="M2557 4963 c-9 -8 -9 -60 0 -92 6 -22 10 -23 59 -18 82 8 92 3 96
-52 l3 -46 45 -6 45 -6 -45 -3 c-35 -2 -38 -4 -16 -7 42 -7 82 5 67 20 -6 6
-11 28 -11 49 0 38 0 38 40 38 l40 0 0 -45 c0 -40 -3 -45 -22 -46 -22 -1 -22
-1 2 -9 25 -8 24 -8 -5 -9 -45 -2 -50 -10 -50 -79 0 -68 6 -74 65 -71 43 3 50
0 50 -22 0 -16 -5 -20 -20 -16 -11 3 -20 1 -20 -4 0 -5 9 -9 20 -9 16 0 20 -6
19 -32 -1 -18 -3 -25 -6 -15 -2 9 -9 17 -15 17 -5 0 -8 -7 -4 -15 3 -9 0 -15
-9 -15 -8 0 -15 7 -15 15 0 8 -5 15 -11 15 -6 0 -9 -7 -5 -15 3 -9 0 -15 -8
-15 -8 0 -13 12 -14 30 -1 31 7 37 24 20 7 -7 11 -6 11 5 0 9 -9 15 -24 15
-20 0 -23 -5 -23 -34 0 -40 -11 -46 -86 -46 l-54 0 0 -60 0 -60 125 0 125 0 0
59 0 59 127 7 c110 6 128 5 138 -9 8 -10 27 -16 49 -16 30 0 36 3 37 23 1 15
4 9 11 -16 6 -22 7 -57 2 -85 -5 -31 -9 -39 -12 -24 -3 18 -10 22 -43 22 -27
0 -39 -4 -39 -14 0 -21 -14 -23 -143 -19 l-118 5 3 -116 3 -116 50 -1 c60 -2
32 -7 -94 -17 l-94 -7 -1 -60 -1 -60 -62 -3 -63 -3 0 -59 0 -60 70 0 c78 0 90
-10 90 -74 0 -20 5 -36 10 -36 6 0 10 18 10 40 0 22 -4 40 -10 40 -5 0 -10 7
-10 16 0 9 7 14 18 12 14 -3 16 -12 13 -53 -2 -28 -7 -58 -12 -67 -12 -23 -11
-68 1 -68 6 0 10 14 10 32 0 38 7 34 13 -7 2 -22 10 -31 25 -33 34 -5 29 -42
-5 -43 -25 -1 -24 -2 6 -8 l34 -6 -1 -80 c0 -44 2 -73 4 -65 3 11 17 14 54 12
l50 -4 0 62 c0 66 10 95 44 123 21 17 21 18 -9 12 -16 -3 -24 -2 -17 1 17 8
15 24 -4 24 -14 0 -14 3 -4 15 7 8 25 15 40 15 16 0 30 -7 34 -15 3 -8 10 -15
17 -15 6 0 9 7 5 15 -3 8 -1 15 4 15 6 0 10 -6 10 -12 0 -9 4 -8 10 2 5 8 10
43 10 78 l0 62 60 0 59 0 3 -57 3 -58 129 0 129 0 0 55 0 55 -67 3 -66 3 0 64
0 64 -62 3 c-75 4 -73 -1 -63 145 l7 103 59 0 59 0 0 65 0 65 -68 0 -68 0 2
79 c2 63 0 80 -12 85 -14 5 -14 8 0 22 32 31 14 52 -49 57 l-50 3 58 2 57 2 0
70 0 70 -65 0 -64 0 -3 -62 -3 -63 -35 1 c-19 0 -38 -5 -42 -10 -4 -6 -9 23
-10 64 l-2 75 -6 -90 -6 -90 -4 70 c-2 39 -3 77 -4 85 -1 12 -17 15 -74 17
-102 2 -102 2 -101 70 l2 58 6 -47 c9 -65 19 -70 13 -7 -6 62 2 69 81 69 56 0
57 1 57 28 0 26 -2 27 -40 24 -23 -3 -47 1 -56 8 -8 7 -28 14 -44 15 -63 3
-70 5 -70 20 0 8 -4 15 -9 15 -5 0 -14 -7 -21 -15 -8 -9 -28 -14 -54 -13 l-41
1 40 7 c25 5 13 6 -34 3 -52 -4 -71 -2 -67 6 8 12 -85 16 -97 4z m153 -33 c0
-13 -20 -13 -40 0 -12 8 -9 10 13 10 15 0 27 -4 27 -10z m90 -45 l0 -45 -40 0
c-22 0 -40 4 -40 9 0 5 -10 12 -22 16 l-23 8 25 4 25 5 -30 13 -30 13 28 1
c15 1 27 6 27 11 0 6 18 10 40 10 l40 0 0 -45z m107 29 c-3 -3 -12 -4 -19 -1
-8 3 -5 6 6 6 11 1 17 -2 13 -5z m132 -20 c8 -7 -74 -2 -99 6 -16 5 -2 6 35 3
33 -3 62 -7 64 -9z m-416 -1 c-13 -2 -33 -2 -45 0 -13 2 -3 4 22 4 25 0 35 -2
23 -4z m317 -20 c-14 -3 -29 -9 -34 -14 -6 -5 -14 -9 -20 -9 -5 0 -1 7 10 15
10 8 30 14 44 13 l25 -1 -25 -4z m144 -349 c3 -8 2 -12 -4 -9 -6 3 -10 10 -10
16 0 14 7 11 14 -7z m30 -210 c27 -10 18 -21 -14 -16 -16 2 -30 8 -30 13 0 10
21 12 44 3z m73 -20 c-3 -3 -12 -4 -19 -1 -8 3 -5 6 6 6 11 1 17 -2 13 -5z
m-27 -54 c0 -22 5 -40 10 -40 6 0 11 -21 11 -47 1 -27 2 -84 2 -127 l2 -80
-32 1 c-18 1 -46 2 -63 2 l-30 1 0 74 c0 50 4 76 13 80 10 5 10 7 0 12 -7 3
-13 23 -13 45 0 39 0 39 40 39 l40 0 0 40 c0 22 5 40 10 40 6 0 10 -18 10 -40z
m-159 -40 c39 0 39 0 39 -40 l0 -40 -40 0 c-39 0 -40 1 -40 34 0 19 -2 40 -3
48 -2 7 -2 10 0 6 3 -5 22 -8 44 -8z m-83 -446 c-1 -23 1 -40 6 -37 5 3 6 30
3 59 l-6 54 70 0 69 0 0 -47 c0 -27 3 -58 7 -71 6 -23 5 -24 -76 -20 -48 2
-83 -1 -85 -7 -10 -27 -21 15 -23 83 l-1 77 20 -25 c14 -18 19 -36 16 -66z
m39 -90 c-3 -3 -12 -4 -19 -1 -8 3 -5 6 6 6 11 1 17 -2 13 -5z"/>
<path d="M2678 4963 c6 -2 18 -2 25 0 6 3 1 5 -13 5 -14 0 -19 -2 -12 -5z"/>
<path d="M5621 4915 c3 -55 14 -64 75 -57 30 4 33 7 32 41 0 20 2 42 4 50 2
11 -11 14 -55 15 l-58 2 2 -51z m40 -11 c-5 -16 -10 -21 -10 -12 -1 18 10 51
15 45 2 -1 -1 -16 -5 -33z"/>
<path d="M384 4778 c3 -35 7 -91 8 -125 l3 -63 -72 0 -73 0 0 -66 0 -67 118 7
c64 4 120 11 123 14 4 4 9 61 11 127 2 66 1 109 -4 95 -5 -18 -6 -16 -2 10 3
19 8 56 11 83 l5 47 -67 0 -67 0 6 -62z m96 -138 l0 -40 -40 0 -40 0 0 40 0
40 40 0 40 0 0 -40z m-35 -83 l40 -4 -42 -1 c-30 -2 -43 -7 -46 -19 -2 -10 -4
-3 -4 15 0 18 3 29 6 23 4 -5 24 -11 46 -14z m40 -47 c-3 -5 -27 -9 -53 -8
l-47 1 50 7 c28 4 51 8 53 8 2 1 0 -2 -3 -8z m-22 -27 c-13 -2 -35 -2 -50 0
-16 2 -5 4 22 4 28 0 40 -2 28 -4z"/>
<path d="M1032 4798 c3 -43 3 -43 46 -46 l42 -3 0 45 0 46 -46 0 -45 0 3 -42z"/>
<path d="M2690 4787 c0 -31 4 -57 10 -57 5 0 7 22 3 53 -8 71 -13 72 -13 4z"/>
<path d="M3700 4780 l0 -60 60 0 60 0 0 60 0 60 -60 0 -60 0 0 -60z"/>
<path d="M4720 4775 l0 -65 -64 0 -64 0 5 -60 c5 -54 4 -60 -13 -61 -11 0 -39
-1 -64 -2 l-45 -2 0 -120 0 -120 29 -3 c15 -2 39 -1 52 2 21 6 24 12 24 59 1
57 17 87 46 86 18 0 18 -1 -1 -9 -20 -9 -20 -9 1 -9 11 -1 25 4 32 11 9 9 12
9 12 0 0 -7 7 -12 15 -12 21 0 19 30 -2 31 -12 1 -10 4 7 9 22 7 23 8 4 9 -16
1 -21 8 -22 31 0 17 4 30 9 30 5 0 9 -12 10 -27 1 -29 4 -25 13 17 5 24 8 25
67 22 33 -2 65 0 71 6 6 6 7 54 2 126 l-7 116 -58 0 -59 0 0 -65z m-70 -204
c0 -21 -13 -41 -26 -41 -8 0 -14 5 -14 10 0 6 7 10 15 10 18 0 20 16 3 23 -8
3 -6 6 5 6 9 1 17 -3 17 -8z m5 -61 c3 -5 1 -10 -4 -10 -6 0 -11 5 -11 10 0 6
2 10 4 10 3 0 8 -4 11 -10z"/>
<path d="M5360 4795 l0 -45 43 -2 42 -1 -45 -7 -45 -7 58 -1 57 -2 0 55 0 55
-55 0 -55 0 0 -45z"/>
<path d="M3830 4653 l0 -68 55 3 c61 4 61 5 56 -79 -2 -20 2 -40 8 -44 15 -9
15 -251 0 -261 -7 -4 -9 -26 -7 -56 3 -29 2 -44 -3 -36 -5 7 -9 8 -9 3 0 -6
-19 -9 -45 -7 -28 3 -45 0 -45 -7 0 -7 22 -11 55 -11 37 0 55 -4 56 -12 0 -7
1 -38 2 -68 l2 -55 63 -3 62 -3 0 131 0 131 73 -1 c39 -1 125 -1 190 -1 l117
1 0 59 0 58 -112 8 c-62 4 -117 7 -123 6 -5 -1 -40 -5 -77 -7 l-68 -6 0 131
c0 127 1 131 23 136 12 3 38 5 57 3 l35 -3 3 54 c2 30 0 57 -5 61 -4 5 -32 6
-60 3 l-53 -6 0 -59 0 -59 -62 3 -63 3 -5 60 -5 60 -57 3 -58 3 0 -68z"/>
<path d="M2070 4700 c12 -8 11 -10 -7 -10 -22 0 -23 -3 -23 -109 0 -68 4 -111
11 -113 6 -2 34 -1 62 2 l52 5 0 60 0 60 -60 -1 c-33 0 -52 1 -42 3 13 3 17
15 17 44 0 39 0 39 40 39 29 0 40 4 40 15 0 11 -12 15 -52 15 -38 0 -49 -3
-38 -10z"/>
<path d="M2455 4700 l20 -9 -20 0 c-18 -1 -20 -7 -16 -52 2 -35 -1 -54 -10
-60 -7 -4 -10 -11 -7 -14 4 -4 18 1 32 12 22 16 25 26 26 76 0 53 -2 57 -22
56 -22 0 -22 -1 -3 -9z"/>
<path d="M2522 4653 c2 -31 8 -58 13 -60 6 -2 9 20 7 57 -2 33 -8 60 -13 60
-6 0 -9 -25 -7 -57z"/>
<path d="M3580 4651 c0 -67 -4 -71 -80 -71 -43 0 -48 -2 -43 -19 4 -14 13 -19
34 -19 16 1 29 5 29 9 0 5 7 5 17 2 11 -4 14 -3 9 5 -4 7 -2 12 3 12 6 0 11
-12 12 -27 1 -16 2 -37 3 -48 1 -11 3 -53 4 -92 l2 -73 93 -1 c50 -1 82 -4 70
-6 -36 -7 -27 -23 12 -23 34 0 47 13 23 23 -7 3 -3 6 9 6 16 1 21 -3 17 -14
-4 -9 0 -15 9 -15 12 0 15 18 16 90 2 77 0 89 -14 84 -9 -4 -15 0 -15 9 0 9
-4 18 -9 21 -5 4 -7 -3 -4 -14 5 -17 0 -20 -31 -20 -39 0 -39 0 -38 73 0 21
-5 40 -12 43 -7 3 -10 26 -8 64 l4 60 -56 0 -56 0 0 -59z"/>
<path d="M3100 4691 c0 -6 6 -11 14 -11 10 0 16 -14 19 -42 l4 -43 1 43 c1 23
6 42 11 42 6 0 12 -19 14 -42 l4 -43 -1 45 c-1 38 -4 45 -22 46 -12 1 -26 4
-33 8 -6 4 -11 2 -11 -3z"/>
<path d="M2490 4629 c0 -34 4 -58 9 -54 5 3 12 -3 15 -12 3 -10 3 0 1 22 -3
22 -5 55 -5 73 0 17 -4 32 -10 32 -6 0 -10 -27 -10 -61z"/>
<path d="M5860 4586 c-52 -5 -99 -14 -103 -20 -6 -7 -7 -4 -3 7 5 15 -2 17
-64 17 -49 0 -70 -4 -71 -12 -1 -7 -2 -33 -3 -58 l-1 -45 65 -5 65 -5 0 -60 0
-60 64 -5 65 -5 -3 -56 c-1 -32 2 -60 8 -63 6 -4 62 -4 126 0 l115 7 0 54 0
54 -67 -2 -68 -3 -3 63 c-2 36 2 68 8 76 6 8 10 24 8 37 -3 22 1 23 62 29 l65
6 -67 1 c-55 2 -66 5 -62 17 5 11 23 15 68 17 l61 1 -75 6 c-41 4 -79 9 -85
12 -5 2 -53 0 -105 -5z m-11 -94 c0 -11 -2 -12 -6 -4 -3 7 -24 12 -54 12 -27
0 -49 3 -49 8 0 4 25 5 55 4 44 -3 55 -7 54 -20z m87 -48 c-3 -9 -7 -32 -8
-52 -1 -37 -1 -36 -8 8 l-7 45 -2 -40 c-2 -46 -17 -79 -25 -55 -3 8 -6 34 -8
57 -3 38 -1 42 22 46 14 2 29 5 34 6 4 0 5 -6 2 -15z m31 -36 l1 -53 -8 45 -7
45 -3 -42 c-1 -24 -3 -49 -4 -55 -2 -18 -28 -16 -33 2 -4 12 -3 12 5 2 12 -17
22 6 22 48 0 16 3 35 6 44 12 31 20 16 21 -36z"/>
<path d="M0 4525 l0 -66 63 3 62 3 0 60 0 60 -62 3 -63 3 0 -66z"/>
<path d="M1025 4584 c-6 -2 -9 -72 -7 -189 l3 -185 76 0 76 0 -6 -62 c-3 -37
-1 -55 3 -43 5 11 9 37 9 58 1 26 5 37 16 37 11 0 15 -12 15 -45 0 -25 3 -45
8 -45 4 0 5 23 4 50 -3 43 -2 49 12 44 11 -4 16 -20 17 -53 l2 -46 7 55 c5 30
8 81 9 112 l1 57 -55 -1 c-30 -1 -57 1 -61 5 -4 4 -8 33 -8 66 l-1 59 125 5
c69 3 152 6 185 7 32 1 62 3 65 5 4 3 5 80 1 107 -1 7 -479 10 -496 2z"/>
<path d="M5175 4579 c-54 -4 -60 -6 -25 -7 30 -1 51 -8 61 -20 22 -26 4 -37
-58 -36 -29 1 -53 -3 -53 -7 0 -5 4 -9 10 -9 5 0 7 -7 4 -15 -5 -12 4 -15 45
-15 28 0 51 5 51 10 0 6 5 10 10 10 6 0 9 -3 8 -7 0 -5 2 -16 7 -26 7 -17 8
-17 21 0 13 17 13 17 14 -2 1 -18 2 -18 8 -3 6 16 10 16 34 4 18 -9 28 -11 30
-4 2 6 33 11 68 12 l65 1 3 63 3 63 -118 -3 c-65 -2 -149 -6 -188 -9z m93 -16
c-10 -2 -26 -2 -35 0 -10 3 -2 5 17 5 19 0 27 -2 18 -5z"/>
<path d="M680 4570 l45 -6 -45 -5 c-42 -5 -41 -6 15 -6 33 -1 54 1 47 4 -6 2
-10 9 -6 14 3 5 -18 8 -48 7 l-53 -1 45 -7z"/>
<path d="M2470 4550 c-8 -5 -13 -10 -10 -11 3 0 13 -2 23 -4 9 -2 17 3 17 11
0 16 -9 18 -30 4z"/>
<path d="M3760 4544 c0 -8 5 -12 10 -9 6 4 8 11 5 16 -9 14 -15 11 -15 -7z"/>
<path d="M5110 4545 c0 -11 11 -15 48 -13 l47 1 -45 7 -45 6 45 5 45 6 -47 1
c-37 2 -48 -2 -48 -13z"/>
<path d="M658 4533 c12 -2 32 -2 45 0 12 2 2 4 -23 4 -25 0 -35 -2 -22 -4z"/>
<path d="M734 4515 c-5 -22 -12 -25 -50 -25 -24 0 -44 -4 -44 -10 0 -5 24 -10
54 -10 l54 0 4 35 c5 40 -8 47 -18 10z"/>
<path d="M2523 4515 c-7 -8 -14 -27 -14 -42 -2 -22 -3 -19 -8 12 l-7 40 -8
-33 -8 -34 -21 20 c-30 26 -57 35 -57 18 0 -8 5 -16 11 -18 5 -2 11 -32 12
-66 2 -48 -1 -63 -13 -67 -8 -2 -65 -7 -126 -11 l-111 -6 -1 -59 0 -59 53 0
c75 0 85 -6 85 -49 0 -49 8 -58 58 -63 l42 -4 0 54 c0 60 4 64 83 66 l52 1 0
123 c0 67 -4 122 -8 122 -4 0 -5 16 -1 35 7 38 5 41 -13 20z m-123 -355 l0
-40 -40 0 -40 0 0 40 0 40 40 0 40 0 0 -40z"/>
<path d="M3459 4523 c-6 -55 -7 -53 29 -53 28 0 32 3 23 13 -6 8 -8 17 -4 20
3 4 -5 7 -18 7 -19 0 -21 2 -9 10 13 8 12 10 -2 10 -10 0 -18 -3 -19 -7z"/>
<path d="M3513 4523 c9 -2 17 -12 17 -20 0 -19 13 -9 16 12 2 10 -6 15 -24 14
-17 -1 -21 -3 -9 -6z"/>
<path d="M3806 4516 c3 -9 11 -16 16 -16 13 0 5 23 -10 28 -7 2 -10 -2 -6 -12z"/>
<path d="M640 4510 c0 -5 18 -10 40 -10 22 0 40 5 40 10 0 6 -18 10 -40 10
-22 0 -40 -4 -40 -10z"/>
<path d="M2450 4510 c0 -5 7 -10 15 -10 8 0 15 5 15 10 0 6 -7 10 -15 10 -8 0
-15 -4 -15 -10z"/>
<path d="M1567 4453 c-10 -10 -8 -86 3 -103 7 -11 10 3 10 48 0 62 -1 67 -13
55z"/>
<path d="M1803 4452 c-6 -4 -13 -32 -15 -62 l-3 -55 -62 -3 -63 -3 0 -64 0
-65 -65 0 -65 0 0 -55 0 -55 33 0 c17 -1 63 -3 102 -6 108 -8 115 -4 115 60 0
51 2 55 28 60 15 2 43 4 62 3 31 -2 35 -5 38 -32 1 -16 5 -45 8 -62 l5 -33 65
0 c46 0 64 -4 63 -12 -1 -7 -1 -35 0 -63 l1 -50 55 3 55 4 2 61 c2 68 -2 170
-7 175 -2 2 -58 3 -124 3 l-121 0 0 117 c0 64 -4 122 -8 127 -9 12 -82 17 -99
7z"/>
<path d="M4720 4395 l0 -65 53 0 c29 0 59 -6 66 -12 11 -11 13 -9 7 12 -3 14
-6 49 -6 78 l0 52 -60 0 -60 0 0 -65z"/>
<path d="M4972 4398 c3 -55 6 -63 23 -64 11 -1 39 -2 63 -3 l42 -1 0 -62 0
-63 62 1 63 2 1 61 2 61 -64 0 -64 0 0 65 0 65 -65 0 -66 0 3 -62z"/>
<path d="M1635 4399 c0 -27 3 -49 8 -49 4 0 7 20 7 44 0 25 -3 47 -7 49 -5 3
-8 -17 -8 -44z"/>
<path d="M1613 4390 c0 -30 2 -43 4 -27 2 15 2 39 0 55 -2 15 -4 2 -4 -28z"/>
<path d="M5288 4395 c-2 -25 0 -45 4 -45 5 0 8 20 8 45 0 25 -2 45 -4 45 -2 0
-6 -20 -8 -45z"/>
<path d="M5314 4401 c1 -30 6 -46 16 -48 10 -3 11 -2 3 4 -6 4 -13 26 -16 48
-4 40 -4 40 -3 -4z"/>
<path d="M35 4323 c27 -3 45 -11 53 -23 7 -12 8 -20 2 -20 -5 0 -10 5 -10 10
0 6 -18 10 -40 10 -34 0 -40 -3 -40 -21 0 -20 4 -21 50 -17 63 6 56 -4 -8 -13
l-47 -6 55 -2 c40 -1 51 -4 40 -11 -13 -8 -12 -10 3 -10 9 0 17 3 18 8 10 71
8 83 -17 92 -14 6 -42 9 -62 8 l-37 -1 40 -4z"/>
<path d="M382 4208 l3 -123 188 -2 188 -3 -3 63 -3 62 -118 0 -117 0 -1 35
c-1 19 -1 47 -1 63 1 27 0 27 -69 27 l-70 0 3 -122z"/>
<path d="M1418 4275 c-1 -30 0 -55 5 -55 4 0 7 7 7 15 0 11 13 15 48 17 l47 1
-44 6 c-63 9 -66 31 -4 33 l48 1 -50 7 -50 7 48 1 c62 3 61 22 -2 22 l-49 0
-4 -55z"/>
<path d="M5613 4075 l0 -255 61 2 61 3 1 180 c0 99 -2 212 -5 250 l-6 70 -56
3 -56 3 0 -256z"/>
<path d="M4960 4312 c0 -7 -18 -13 -42 -14 l-43 -1 39 -4 c37 -4 67 9 53 24
-4 3 -7 1 -7 -5z"/>
<path d="M3712 4262 c-2 -26 1 -29 33 -30 28 -1 35 2 35 17 0 15 -36 41 -58
41 -4 0 -9 -13 -10 -28z m48 -2 c0 -5 -4 -10 -10 -10 -5 0 -10 5 -10 10 0 6 5
10 10 10 6 0 10 -4 10 -10z"/>
<path d="M3798 4278 c-3 -7 -2 -22 2 -32 6 -19 7 -19 12 1 7 25 -6 53 -14 31z"/>
<path d="M1458 4273 c12 -2 32 -2 45 0 12 2 2 4 -23 4 -25 0 -35 -2 -22 -4z"/>
<path d="M4760 4240 l-45 -7 52 -1 c28 -1 55 3 58 8 7 11 4 11 -65 0z"/>
<path d="M4898 4233 c12 -2 32 -2 45 0 12 2 2 4 -23 4 -25 0 -35 -2 -22 -4z"/>
<path d="M1458 4223 c12 -2 32 -2 45 0 12 2 2 4 -23 4 -25 0 -35 -2 -22 -4z"/>
<path d="M3700 4150 l0 -70 65 0 c58 0 65 2 65 20 0 17 7 20 50 20 l50 0 0 40
0 40 -49 0 c-28 0 -53 5 -56 10 -3 6 -33 10 -66 10 l-59 0 0 -70z"/>
<path d="M4655 4211 l-70 -6 -3 -52 c-2 -32 -8 -53 -15 -54 -7 0 -3 -4 8 -8
11 -5 76 -12 145 -16 69 -4 119 -10 112 -12 -6 -3 -10 -9 -6 -14 3 -5 0 -9 -5
-9 -6 0 -11 5 -11 10 0 6 -20 10 -45 10 l-45 0 0 -50 0 -50 68 -2 c37 -1 126
-2 198 -3 111 0 130 2 128 15 -7 35 -16 109 -21 168 l-5 62 -53 0 c-30 0 -57
5 -60 10 -6 11 -195 11 -320 1z"/>
<path d="M147 4140 c-4 -36 -12 -66 -17 -68 -21 -7 -10 -30 13 -26 12 2 16 2
10 -2 -7 -3 -13 -23 -13 -45 0 -37 -2 -39 -30 -39 -29 0 -30 -2 -30 -45 l0
-45 -40 0 c-33 0 -40 -3 -40 -20 0 -17 7 -20 39 -20 25 0 41 5 45 15 3 8 13
15 21 15 9 0 13 5 10 10 -3 6 -1 10 4 10 6 0 11 -5 11 -12 0 -9 3 -9 12 0 7 7
32 11 57 10 l46 -1 -45 -7 -45 -6 45 -6 c38 -4 36 -5 -17 -4 -35 0 -68 -5 -74
-11 -7 -7 10 -9 60 -5 89 6 101 -2 101 -73 0 -43 4 -54 18 -58 13 -4 13 -5 -4
-6 -12 0 -27 -8 -34 -16 -9 -11 -29 -14 -69 -13 l-56 1 60 6 60 6 -85 7 c-47
5 -102 8 -122 8 l-38 0 0 -110 0 -110 58 0 c46 0 59 -3 59 -15 0 -8 -7 -15
-14 -15 -8 0 -11 5 -8 10 4 6 -13 10 -44 10 l-51 0 0 -140 0 -140 60 0 59 0 3
63 3 62 63 3 63 3 -2 127 -1 127 65 3 66 3 -5 115 c-4 70 -2 120 4 127 6 7 12
37 13 67 l3 55 -77 3 c-48 2 -75 7 -72 13 4 5 3 43 0 84 l-7 75 -39 0 c-37 0
-38 0 -41 43 -3 38 -4 36 -11 -23z m171 -382 l-1 -63 -7 55 c-6 53 -7 53 -8
13 -3 -60 -22 -54 -22 7 0 43 3 50 20 50 18 0 20 -6 18 -62z m39 56 c-3 -3
-12 -4 -19 -1 -8 3 -5 6 6 6 11 1 17 -2 13 -5z m1 -61 c-4 -66 -28 -70 -28 -4
0 39 4 51 16 51 12 0 14 -10 12 -47z m-108 -103 c8 -5 13 -10 10 -10 -3 -1
-30 -2 -61 -3 -42 -1 -55 1 -52 11 6 14 81 16 103 2z m-94 -46 c-3 -9 -6 -22
-6 -30 0 -8 -4 -14 -8 -14 -5 0 -7 14 -4 30 2 17 9 30 14 30 6 0 7 -7 4 -16z
m201 -10 c-3 -3 -12 -4 -19 -1 -8 3 -5 6 6 6 11 1 17 -2 13 -5z"/>
<path d="M5230 4145 l0 -56 57 3 58 3 3 53 4 52 -61 0 -61 0 0 -55z"/>
<path d="M4471 4104 c0 -11 3 -14 6 -6 3 7 2 16 -1 19 -3 4 -6 -2 -5 -13z"/>
<path d="M3363 4093 c15 -2 39 -2 55 0 15 2 2 4 -28 4 -30 0 -43 -2 -27 -4z"/>
<path d="M900 3953 l0 -124 58 3 57 3 3 121 3 122 -61 -1 -60 -1 0 -123z"/>
<path d="M1415 4071 c-16 -3 -29 -10 -27 -14 1 -4 2 -27 2 -52 l0 -45 -55 0
-55 0 0 -65 0 -65 119 1 120 1 3 111 c2 62 1 118 -1 125 -3 13 -54 14 -106 3z
m23 -139 c2 -7 -3 -12 -12 -12 -9 0 -16 7 -16 16 0 17 22 14 28 -4z m2 -59 c0
-10 -4 -14 -8 -8 -4 6 -11 13 -16 18 -5 4 -2 7 7 7 10 0 17 -8 17 -17z"/>
<path d="M5883 4073 c-8 -3 -13 -24 -13 -59 0 -60 -10 -54 90 -58 l35 -1 1
-50 c0 -27 1 -56 2 -62 1 -9 22 -13 62 -13 l60 0 0 60 0 59 -62 3 -63 3 -5 60
-5 60 -45 1 c-25 0 -51 -1 -57 -3z"/>
<path d="M23 4063 c15 -2 39 -2 55 0 15 2 2 4 -28 4 -30 0 -43 -2 -27 -4z"/>
<path d="M1303 4043 c15 -2 37 -2 50 0 12 2 0 4 -28 4 -27 0 -38 -2 -22 -4z"/>
<path d="M513 3953 c-15 -6 -18 -119 -4 -128 6 -3 8 -57 4 -130 l-5 -125 66 0
66 0 0 63 c0 35 -3 67 -7 71 -8 8 -4 108 5 118 4 4 31 8 60 9 29 2 55 6 58 11
3 4 -3 8 -13 8 -13 0 -14 3 -5 8 7 5 14 26 15 46 l2 38 -108 4 c-60 2 -112 6
-115 8 -4 2 -13 1 -19 -1z m227 -31 c0 -4 -17 -6 -37 -4 -65 6 -70 10 -15 11
28 0 52 -3 52 -7z m-37 -69 c-13 -2 -33 -2 -45 0 -13 2 -3 4 22 4 25 0 35 -2
23 -4z"/>
<path d="M2290 3947 l-35 -11 35 -6 35 -7 -41 -2 c-31 -1 -44 3 -49 17 -6 16
-7 16 -19 0 -13 -18 -28 -25 -23 -10 1 4 -2 7 -7 7 -13 0 -7 -88 6 -96 23 -15
44 2 40 32 -4 28 -3 29 34 28 30 0 34 -2 19 -9 -19 -7 -18 -8 5 -13 15 -2 12
-3 -7 -1 -18 1 -35 -2 -38 -7 -4 -5 6 -9 20 -9 16 0 24 -4 20 -10 -5 -7 16
-10 62 -8 57 3 68 6 71 22 2 10 0 16 -5 13 -4 -3 -6 15 -4 39 l3 44 -43 -1
c-24 0 -60 -6 -79 -12z m93 -94 c-13 -2 -33 -2 -45 0 -13 2 -3 4 22 4 25 0 35
-2 23 -4z"/>
<path d="M3837 3944 c-4 -4 -7 -35 -7 -69 l0 -61 50 6 c41 5 50 4 51 -9 2 -31
17 66 16 100 -2 34 -3 34 -52 37 -28 2 -54 0 -58 -4z"/>
<path d="M4416 3935 c4 -8 1 -15 -5 -15 -6 0 -11 5 -11 10 0 6 -4 10 -10 10
-5 0 -9 -5 -7 -11 1 -6 -4 -14 -12 -17 -10 -3 -12 0 -8 12 4 10 1 16 -7 16 -9
0 -12 -8 -9 -24 5 -22 8 -24 30 -15 13 5 60 9 103 9 65 0 81 -3 89 -17 10 -17
10 -17 11 0 0 9 -5 17 -11 17 -8 0 -8 5 1 15 9 10 9 15 1 15 -6 0 -11 -4 -11
-10 0 -15 -73 -11 -94 5 -26 20 -57 20 -50 0z"/>
<path d="M5208 3943 c6 -3 12 -11 12 -18 0 -7 8 -16 18 -18 9 -3 4 -5 -13 -6
-16 -1 -25 -5 -20 -9 15 -11 18 -42 4 -42 -8 0 -6 -5 4 -12 14 -11 17 -40 19
-208 l3 -195 -52 3 c-83 6 -89 1 -85 -63 l4 -55 74 0 74 0 0 40 c0 23 -5 40
-11 40 -7 0 -5 10 6 26 9 14 14 32 11 40 -3 8 -1 14 4 14 13 0 13 -37 -1 -62
-9 -17 -9 -20 2 -16 11 4 13 -4 11 -38 l-4 -43 44 -3 43 -3 3 -62 3 -63 60 0
60 0 -3 123 -3 122 -65 1 -65 1 -5 67 c-3 37 -3 70 -1 72 2 2 34 4 71 4 l66 0
2 55 1 55 -64 0 -65 0 -1 108 c-1 59 -2 116 -3 126 -1 17 -10 20 -76 22 -41 1
-69 0 -62 -3z m89 -95 c-3 -7 -5 -2 -5 12 0 14 2 19 5 13 2 -7 2 -19 0 -25z
m18 -364 c-3 -25 -11 -42 -16 -39 -5 4 -5 13 1 25 5 10 11 36 11 57 1 21 3 30
6 19 3 -10 2 -38 -2 -62z"/>
<path d="M3603 3933 c15 -2 39 -2 55 0 15 2 2 4 -28 4 -30 0 -43 -2 -27 -4z"/>
<path d="M3580 3910 c0 -5 5 -10 11 -10 5 0 7 5 4 10 -3 6 -8 10 -11 10 -2 0
-4 -4 -4 -10z"/>
<path d="M418 3893 c12 -2 32 -2 45 0 12 2 2 4 -23 4 -25 0 -35 -2 -22 -4z"/>
<path d="M4387 3889 c-9 -6 -15 -14 -12 -20 4 -5 1 -9 -4 -9 -6 0 -11 5 -11
12 0 8 -3 9 -10 2 -18 -18 -1 -42 25 -36 17 3 22 9 18 21 -5 15 -5 15 8 0 8
-9 27 -20 42 -23 l28 -7 -7 -129 -7 -130 67 0 67 0 -4 126 c-5 141 -6 144 -76
144 -43 0 -43 0 -37 30 5 29 4 30 -32 30 -20 0 -45 -5 -55 -11z m72 -2 c-2 -1
-11 -8 -20 -15 -13 -10 -19 -9 -29 3 -11 13 -8 15 20 15 19 0 31 -1 29 -3z"/>
<path d="M5110 3862 c0 -4 17 -6 38 -4 58 5 62 10 10 11 -27 1 -48 -3 -48 -7z"/>
<path d="M4560 3850 c0 -5 5 -10 10 -10 6 0 10 5 10 10 0 6 -4 10 -10 10 -5 0
-10 -4 -10 -10z"/>
<path d="M1020 3761 l0 -71 -126 0 -126 0 6 -37 c3 -21 5 -47 6 -58 0 -18 6
-20 63 -19 34 1 90 2 125 3 38 1 61 5 57 11 -6 9 14 16 70 23 17 2 6 5 -24 6
-65 1 -60 12 9 21 l49 6 4 -40 c3 -33 4 -30 5 17 1 32 -2 57 -8 57 -6 0 -9 -6
-8 -12 2 -9 -14 -14 -50 -16 -50 -3 -52 -2 -41 16 10 15 28 21 87 26 41 3 92
6 114 6 l38 0 0 60 0 60 -33 0 c-19 0 -75 3 -125 6 l-92 7 0 -72z"/>
<path d="M4853 3814 c-2 -6 -3 -33 -1 -60 l3 -49 55 0 55 0 3 57 3 56 -57 4
c-36 2 -58 -1 -61 -8z"/>
<path d="M2456 3799 c-3 -13 -7 -40 -9 -59 -3 -26 -5 -22 -7 20 l-3 55 -7 -70
c-4 -38 -8 -94 -9 -122 l-1 -53 68 0 67 0 -3 -68 -3 -67 62 5 63 5 4 57 c5 81
-7 98 -68 98 -69 0 -63 18 8 23 l57 3 -57 2 c-34 1 -58 7 -58 13 0 6 18 10 43
9 69 -3 75 -1 54 14 -18 14 -18 14 0 19 10 3 -8 5 -39 6 -66 1 -76 11 -79 84
-3 44 -4 47 -31 47 -16 0 -28 -5 -28 -12 0 -9 -3 -8 -9 1 -8 12 -11 10 -15
-10z m194 -217 c0 -4 -17 -6 -37 -4 -59 5 -63 10 -10 11 26 1 47 -3 47 -7z"/>
<path d="M5490 3760 l0 -60 60 0 61 0 -3 58 -3 57 -57 3 -58 3 0 -61z"/>
<path d="M1547 3803 c6 -4 13 -26 16 -48 4 -40 4 -40 3 4 -1 30 -6 46 -16 48
-10 3 -11 2 -3 -4z"/>
<path d="M1892 3763 c-1 -28 -6 -55 -12 -58 -5 -3 -10 -14 -10 -23 0 -15 1
-15 16 -1 11 12 14 31 11 75 l-3 59 -2 -52z"/>
<path d="M4258 3803 c12 -2 32 -2 45 0 12 2 2 4 -23 4 -25 0 -35 -2 -22 -4z"/>
<path d="M1870 3761 c0 -22 -5 -41 -12 -44 -7 -2 -9 -8 -5 -13 13 -13 27 17
27 59 0 20 -2 37 -5 37 -3 0 -5 -18 -5 -39z"/>
<path d="M1640 3712 c0 -9 -15 -13 -52 -12 -96 0 -174 -2 -181 -7 -11 -7 2
-253 15 -273 8 -12 9 -12 4 2 -4 14 4 17 52 20 42 2 57 7 58 18 1 8 3 42 4 75
1 33 4 52 7 43 3 -14 9 -15 29 -8 17 7 24 6 25 -3 0 -6 5 -3 10 8 6 14 8 2 6
-42 -1 -33 1 -59 6 -56 4 2 7 28 7 56 0 37 3 48 10 37 7 -10 10 11 10 68 0 45
-2 82 -5 82 -3 0 -5 -4 -5 -8z m-93 -64 c-3 -8 -6 -5 -6 6 -1 11 2 17 5 13 3
-3 4 -12 1 -19z"/>
<path d="M2817 3691 c-5 -22 1 -33 14 -25 12 7 12 44 0 44 -5 0 -11 -9 -14
-19z"/>
<path d="M4269 3702 c-63 -3 -66 -6 -64 -82 l0 -45 68 -3 67 -3 0 65 c0 36 -3
66 -7 68 -5 2 -33 2 -64 0z"/>
<path d="M1822 3670 c0 -19 2 -27 5 -17 2 9 2 25 0 35 -3 9 -5 1 -5 -18z"/>
<path d="M4986 3688 c-13 -7 -15 -46 -7 -110 1 -5 28 -8 61 -8 l60 0 0 63 0
64 -50 -1 c-27 0 -56 -3 -64 -8z"/>
<path d="M5811 3691 l-63 -6 -4 -40 c-8 -75 -3 -81 63 -76 32 2 115 3 186 2
l127 -2 0 59 0 59 -92 7 c-96 6 -114 6 -217 -3z"/>
<path d="M1904 3666 c-8 -18 -8 -28 -1 -35 6 -6 8 -11 4 -11 -4 0 -3 -9 3 -20
9 -16 21 -20 68 -20 l57 0 -1 43 c-1 69 1 67 -61 67 -52 0 -59 -3 -69 -24z"/>
<path d="M3100 3670 c0 -5 5 -10 10 -10 6 0 10 5 10 10 0 6 -4 10 -10 10 -5 0
-10 -4 -10 -10z"/>
<path d="M1837 3638 c-25 -26 -18 -31 11 -8 12 10 19 20 15 23 -5 2 -16 -5
-26 -15z"/>
<path d="M3158 3643 c7 -3 16 -2 19 1 4 3 -2 6 -13 5 -11 0 -14 -3 -6 -6z"/>
<path d="M2815 3630 c-15 -7 -10 -9 23 -9 23 -1 42 -5 42 -11 0 -5 7 -10 15
-10 24 0 17 17 -9 24 -13 3 -30 8 -38 10 -7 3 -22 1 -33 -4z"/>
<path d="M3158 3623 c7 -3 16 -2 19 1 4 3 -2 6 -13 5 -11 0 -14 -3 -6 -6z"/>
<path d="M1860 3610 c-8 -5 -11 -12 -7 -16 4 -4 13 -2 19 4 15 15 7 24 -12 12z"/>
<path d="M2824 3594 c15 -14 17 -14 32 0 14 15 13 16 -16 16 -29 0 -30 -1 -16
-16z"/>
<path d="M3108 3603 c6 -2 18 -2 25 0 6 3 1 5 -13 5 -14 0 -19 -2 -12 -5z"/>
<path d="M1791 3519 l-2 -80 58 3 58 3 3 71 3 71 -51 -5 c-33 -3 -50 -1 -50 7
0 6 -4 11 -9 11 -4 0 -9 -36 -10 -81z"/>
<path d="M1058 3583 c12 -2 32 -2 45 0 12 2 2 4 -23 4 -25 0 -35 -2 -22 -4z"/>
<path d="M2044 3557 c-3 -8 -4 -36 -2 -63 l3 -49 125 0 125 0 0 60 0 60 -123
3 c-98 2 -123 0 -128 -11z"/>
<path d="M4713 3564 c-16 -7 -17 -68 -2 -95 10 -19 7 -20 -47 -17 l-58 3 1 55
1 55 -8 -55 c-4 -30 -8 -89 -9 -131 l-1 -76 -57 1 -58 1 -3 -116 -3 -116 92
-6 c156 -12 149 -13 149 31 0 22 -3 73 -6 115 l-7 77 -43 0 c-24 0 -43 -3 -43
-7 4 -22 -2 -43 -12 -43 -6 0 -9 6 -6 14 3 7 1 18 -5 24 -13 13 23 25 82 26
l45 1 3 67 3 66 125 7 125 7 -3 57 -3 56 -120 2 c-66 1 -126 -1 -132 -3z m-63
-330 c0 -38 -3 -45 -16 -40 -9 3 -20 6 -26 6 -6 0 -2 8 10 18 14 12 18 23 12
32 -9 15 -4 30 11 30 5 0 9 -21 9 -46z m-107 29 c-13 -2 -33 -2 -45 0 -13 2
-3 4 22 4 25 0 35 -2 23 -4z m147 -42 c0 -11 -4 -23 -10 -26 -6 -4 -10 5 -10
19 0 14 5 26 10 26 6 0 10 -9 10 -19z"/>
<path d="M640 3500 l0 -60 54 0 c61 0 66 6 66 76 l0 44 -60 0 -60 0 0 -60z"/>
<path d="M3582 3530 c-3 -69 3 -76 61 -70 l52 4 -50 6 -50 5 -6 45 c-5 41 -6
42 -7 10z"/>
<path d="M3683 3520 c0 -25 2 -35 4 -22 2 12 2 32 0 45 -2 12 -4 2 -4 -23z"/>
<path d="M3833 3520 c0 -25 2 -35 4 -22 2 12 2 32 0 45 -2 12 -4 2 -4 -23z"/>
<path d="M3933 3510 c0 -30 2 -43 4 -27 2 15 2 39 0 55 -2 15 -4 2 -4 -28z"/>
<path d="M1551 3464 c0 -11 3 -14 6 -6 3 7 2 16 -1 19 -3 4 -6 -2 -5 -13z"/>
<path d="M1570 3471 c0 -6 5 -13 10 -16 6 -3 10 1 10 9 0 9 -4 16 -10 16 -5 0
-10 -4 -10 -9z"/>
<path d="M4675 3470 c-3 -5 -1 -10 4 -10 6 0 11 5 11 10 0 6 -2 10 -4 10 -3 0
-8 -4 -11 -10z"/>
<path d="M5751 3464 c0 -11 3 -14 6 -6 3 7 2 16 -1 19 -3 4 -6 -2 -5 -13z"/>
<path d="M3832 3392 c2 -45 -1 -82 -6 -82 -5 0 -7 -2 -5 -3 2 -2 32 -1 67 2
l64 7 -4 -63 -3 -63 68 0 67 0 0 58 0 59 98 6 c53 4 129 7 169 7 l72 0 4 43 4
42 1 -42 c1 -31 6 -43 17 -43 16 0 20 34 9 89 -7 33 -30 42 -37 14 -4 -17 -5
-17 -6 0 -1 15 -16 17 -166 17 l-165 0 0 -60 0 -60 -60 0 -59 0 -3 63 -3 62
-55 3 c-30 2 -58 9 -63 15 -4 7 -6 -25 -5 -71z"/>
<path d="M5995 3440 c-4 -6 -3 -65 0 -130 l8 -120 58 0 59 0 0 130 0 130 -59
0 c-33 0 -63 -5 -66 -10z"/>
<path d="M758 3380 l4 -60 -61 0 -61 0 0 -65 0 -65 125 0 126 0 -3 123 -3 122
-66 3 -65 3 4 -61z"/>
<path d="M1127 3432 c7 -4 -11 -8 -40 -7 -36 0 -51 -4 -49 -12 1 -7 -2 -13 -8
-13 -5 0 -10 -18 -10 -40 l0 -40 130 0 130 0 0 60 0 60 -82 0 c-46 0 -78 -4
-71 -8z"/>
<path d="M1672 3428 c-6 -6 -12 -34 -12 -60 l0 -48 60 0 61 0 -3 58 -3 57 -45
3 c-26 2 -50 -2 -58 -10z"/>
<path d="M1967 3430 c-26 -3 -47 -8 -47 -12 0 -5 0 -28 0 -53 l0 -45 55 0 55
0 0 33 c0 17 3 42 6 53 7 26 -6 31 -69 24z"/>
<path d="M2692 3431 c-7 -4 -12 -12 -11 -17 10 -53 -22 -153 -37 -116 -3 6
-22 12 -42 12 -52 0 -64 11 -62 56 3 65 4 64 -55 64 l-56 0 2 -120 1 -120 247
2 246 3 3 58 3 57 -66 0 -65 0 0 65 0 65 -47 0 c-27 0 -54 -4 -61 -9z m-239
-68 c-6 -84 -11 -88 -12 -10 -1 37 3 67 7 67 5 0 7 -26 5 -57z m37 5 l-4 -53
-7 45 -6 45 -3 -45 c-2 -35 -4 -38 -7 -16 -6 37 4 76 20 76 8 0 11 -15 7 -52z
m40 42 c0 -5 -2 -10 -4 -10 -3 0 -8 5 -11 10 -3 6 -1 10 4 10 6 0 11 -4 11
-10z m93 -137 c-13 -2 -33 -2 -45 0 -13 2 -3 4 22 4 25 0 35 -2 23 -4z m29
-42 c8 -11 27 -21 43 -24 28 -4 28 -4 -5 -6 -20 0 -40 3 -45 8 -6 5 -28 11
-50 14 l-40 4 45 3 45 3 -45 7 -45 7 42 1 c31 2 45 -3 55 -17z m-29 -28 c-13
-2 -33 -2 -45 0 -13 2 -3 4 22 4 25 0 35 -2 23 -4z"/>
<path d="M3058 3416 c-1 -11 -2 -70 -2 -131 l-1 -109 -45 0 c-39 1 -40 0 -7
-3 37 -4 37 -5 37 -48 0 -43 -1 -44 -37 -48 -25 -3 -22 -4 10 -2 52 2 49 9 49
-93 l1 -43 58 2 c33 1 62 -1 66 -4 3 -4 33 -7 65 -7 l58 0 0 -60 0 -60 65 0
c74 0 79 -7 73 -91 -3 -43 -3 -44 -43 -47 -21 -2 -54 -1 -72 3 -29 5 -32 9
-36 48 l-4 42 -1 -42 -2 -43 -47 -1 c-27 0 -78 0 -115 1 l-68 1 0 -65 0 -66
138 2 c75 1 161 1 190 0 l52 -2 0 -65 0 -65 70 0 70 0 -4 -37 c-8 -72 -1 -83
59 -83 l52 0 7 104 c3 57 4 111 0 120 -8 20 -114 24 -115 4 0 -7 -4 -3 -9 10
-5 12 -9 26 -9 30 0 4 -10 10 -23 14 -22 6 -22 6 -1 7 19 1 22 8 28 85 10 118
6 126 -60 126 l-54 0 -3 68 -3 67 -62 3 c-35 2 -63 6 -63 9 0 4 7 15 17 25 15
17 15 18 -3 19 -11 0 -13 3 -6 6 6 2 10 9 6 14 -3 5 1 9 8 10 7 0 4 4 -7 9
-14 6 -2 9 45 11 53 2 41 4 -65 13 l-130 11 -3 54 c-2 30 1 58 5 62 5 5 35 9
67 10 65 2 68 6 70 77 1 51 -2 49 74 51 l42 1 0 54 0 53 -85 7 c-46 4 -132 6
-190 5 -99 -1 -105 -3 -107 -23z m72 -426 c-8 -5 -19 -10 -25 -10 -5 0 -3 5 5
10 8 5 20 10 25 10 6 0 3 -5 -5 -10z"/>
<path d="M4980 3414 c0 -8 5 -12 10 -9 6 3 10 10 10 16 0 5 -4 9 -10 9 -5 0
-10 -7 -10 -16z"/>
<path d="M5015 3396 c-4 -18 -5 -44 -2 -57 3 -15 5 -7 7 21 l3 45 7 -50 8 -50
-2 63 c-1 68 -11 82 -21 28z"/>
<path d="M5735 3310 c-3 -5 -31 -10 -61 -10 -30 0 -54 -1 -54 -2 0 -2 -3 -141
-6 -310 l-6 -308 61 0 61 0 1 43 c1 23 1 49 0 59 -3 23 13 30 74 31 63 2 65 0
65 -78 l0 -53 37 -4 c76 -9 83 -3 83 68 l0 64 65 0 65 0 0 66 0 67 -127 -8
c-71 -4 -157 -8 -193 -8 l-65 -1 -3 59 c-2 32 1 62 7 68 5 5 61 10 125 9 l114
0 4 54 c3 60 5 58 -87 66 -30 3 -30 3 -33 71 l-3 67 -59 0 c-32 0 -62 -4 -65
-10z m-55 -28 c0 -10 -36 -9 -46 1 -4 4 5 7 19 7 15 0 27 -4 27 -8z m47 -54
c-2 -13 -4 -3 -4 22 0 25 2 35 4 23 2 -13 2 -33 0 -45z m-53 5 c-10 -40 -14
-41 -14 -5 0 18 5 32 10 32 6 0 8 -11 4 -27z m39 -155 c8 -5 6 -8 -5 -8 -16 0
-18 10 -16 98 l2 97 3 -90 c3 -55 8 -92 16 -97z m-76 100 c-2 -13 -4 -5 -4 17
-1 22 1 32 4 23 2 -10 2 -28 0 -40z m26 -72 c3 -30 1 -43 -4 -35 -8 13 -13 97
-5 88 2 -2 6 -26 9 -53z m177 -226 l0 -40 -40 0 -40 0 0 40 0 40 40 0 40 0 0
-40z"/>
<path d="M260 3250 l0 -60 59 0 59 0 3 33 c2 17 3 44 1 60 -3 26 -5 27 -63 27
l-59 0 0 -60z"/>
<path d="M1280 3296 c0 -10 14 -16 43 -19 l42 -4 -42 -1 c-24 -1 -43 -6 -43
-11 0 -6 19 -12 43 -14 l42 -4 -42 -1 c-31 -1 -43 -6 -43 -17 0 -11 12 -15 43
-16 41 -1 41 -2 -12 -9 -30 -5 -106 -11 -168 -15 -106 -7 -114 -9 -119 -30 -3
-12 -4 -36 -2 -51 3 -27 7 -29 58 -36 30 -3 101 -6 156 -7 135 -1 166 -8 163
-35 0 -11 -1 -36 0 -54 l1 -32 110 1 c61 0 110 5 110 10 0 5 8 9 18 9 14 0 15
-2 2 -10 -10 -7 9 -10 63 -10 l77 0 0 58 c0 31 4 62 8 67 4 6 32 10 62 10 l55
0 1 53 1 52 -68 0 -69 0 0 -56 0 -56 -49 4 c-52 3 -71 -10 -71 -50 0 -10 -6
-26 -13 -36 -16 -22 -47 -11 -46 18 1 16 2 17 6 4 2 -10 8 -18 13 -18 5 0 8 6
6 13 -1 6 -1 9 1 5 10 -17 24 -7 21 15 -3 19 -10 23 -58 27 l-55 5 -3 63 -3
62 -53 0 c-31 0 -58 5 -64 13 -5 6 -8 32 -7 56 6 69 -9 74 -16 6 l-6 -60 -1
58 -2 57 -45 0 c-33 0 -45 -4 -45 -14z m297 -276 c1 -11 -2 -18 -8 -15 -11 7
-12 35 -1 35 4 0 8 -9 9 -20z m40 14 c-3 -3 -12 -4 -19 -1 -8 3 -5 6 6 6 11 1
17 -2 13 -5z m-72 -24 c3 -5 1 -10 -4 -10 -6 0 -11 5 -11 10 0 6 2 10 4 10 3
0 8 -4 11 -10z"/>
<path d="M3575 3236 c-4 -39 -5 -93 -3 -121 l3 -50 123 -3 122 -3 0 76 c0 60
-3 75 -15 75 -8 0 -15 7 -15 16 0 13 3 14 14 4 12 -9 15 -8 13 9 -1 14 -8 21
-22 21 -13 0 -22 6 -22 15 0 17 14 20 19 4 2 -6 12 -10 22 -8 16 3 15 6 -8 19
-22 11 -31 12 -47 2 -16 -10 -24 -9 -43 3 -16 11 -43 15 -79 14 l-56 -2 -6
-71z m173 27 c-10 -2 -28 -2 -40 0 -13 2 -5 4 17 4 22 1 32 -1 23 -4z m-21
-59 c-3 -3 -12 -4 -19 -1 -8 3 -5 6 6 6 11 1 17 -2 13 -5z m43 -4 c0 -5 -2
-10 -4 -10 -3 0 -8 5 -11 10 -3 6 -1 10 4 10 6 0 11 -4 11 -10z"/>
<path d="M4850 3246 c0 -35 3 -66 8 -68 4 -1 6 -29 4 -60 l-4 -58 -69 0 -69 0
0 -65 0 -65 -60 0 -60 0 0 -65 c0 -62 1 -65 23 -61 12 3 39 5 60 5 l37 1 0 58
0 59 123 9 122 9 2 55 c1 30 2 60 2 65 1 6 20 10 43 10 42 0 43 1 49 40 6 39
7 39 4 -7 -1 -36 1 -45 12 -41 10 4 13 21 11 62 l-3 56 -52 -1 -52 -1 -3 61
-3 61 -62 3 -63 3 0 -65z m110 -126 l0 -40 -40 0 -40 0 0 40 0 40 40 0 40 0 0
-40z"/>
<path d="M2236 3284 c-9 -24 -7 -27 9 -10 17 17 19 26 6 26 -5 0 -12 -7 -15
-16z"/>
<path d="M2200 3270 c0 -5 5 -10 10 -10 6 0 10 5 10 10 0 6 -4 10 -10 10 -5 0
-10 -4 -10 -10z"/>
<path d="M2272 3240 c0 -14 2 -19 5 -12 2 6 2 18 0 25 -3 6 -5 1 -5 -13z"/>
<path d="M2200 3236 c0 -9 5 -16 10 -16 6 0 10 4 10 9 0 6 -4 13 -10 16 -5 3
-10 -1 -10 -9z"/>
<path d="M3359 3227 c5 -5 26 -7 47 -5 l39 3 -47 5 c-26 3 -43 1 -39 -3z"/>
<path d="M4087 3184 c-4 -4 -7 -34 -7 -66 l0 -58 65 0 66 0 -3 63 -3 62 -55 3
c-31 2 -59 0 -63 -4z"/>
<path d="M138 3120 l4 -60 -71 0 -71 0 0 -190 0 -190 65 0 65 0 0 -65 0 -65
60 0 60 0 0 65 0 65 -50 0 c-48 0 -50 1 -50 29 0 16 -2 41 -4 57 -2 16 -1 23
1 16 3 -9 20 -12 51 -10 l47 3 5 80 5 80 59 5 59 5 1 54 0 55 -56 -3 c-65 -3
-71 2 -72 73 l-1 51 -55 3 -55 3 3 -61z m102 -330 c0 -5 -18 -10 -40 -10 -22
0 -40 5 -40 10 0 6 18 10 40 10 22 0 40 -4 40 -10z"/>
<path d="M1674 3164 c3 -9 6 -31 6 -50 0 -33 1 -34 40 -34 l40 0 0 50 0 50
-46 0 c-38 0 -45 -3 -40 -16z"/>
<path d="M510 3001 c0 -66 6 -71 85 -68 l40 2 1 63 1 62 -63 0 -64 0 0 -59z"/>
<path d="M2000 3050 c0 -4 8 -7 17 -6 25 2 22 -27 -4 -41 -13 -6 -40 -14 -60
-16 l-38 -4 41 -1 c22 -1 45 3 52 10 17 17 33 -2 26 -29 -5 -19 -14 -22 -63
-25 l-56 -3 -2 -83 c-2 -86 -9 -114 -20 -74 -5 23 -37 30 -48 12 -3 -5 -18
-10 -33 -9 l-27 1 25 8 c16 6 -4 8 -60 7 l-85 -2 -3 -57 -3 -56 58 -4 c95 -6
103 -2 103 47 0 29 5 45 15 49 8 3 15 1 15 -4 0 -6 -4 -10 -10 -10 -5 0 -10
-18 -10 -40 0 -22 5 -40 10 -40 6 0 10 17 10 38 0 20 5 44 10 52 9 13 11 13
20 0 5 -8 10 -32 10 -52 l0 -38 75 0 75 0 0 65 0 65 59 0 c33 0 63 -5 66 -11
4 -5 4 -61 0 -124 l-7 -114 -57 -3 -56 -3 -3 -67 -3 -68 55 0 c81 0 86 4 86
66 0 30 4 54 8 54 5 0 7 -24 4 -53 l-4 -53 43 0 44 1 7 50 c4 28 7 112 7 187
0 120 2 138 18 147 10 6 14 11 8 11 -6 0 -9 21 -7 50 l4 50 -39 1 c-118 4
-106 -2 -110 58 -1 30 -4 55 -5 56 -9 7 -158 12 -158 5z m251 -522 c0 -10 2
-10 6 0 2 6 9 12 15 12 7 0 7 -4 0 -13 -6 -7 -12 -30 -15 -52 l-4 -40 -1 43
c-1 29 -6 42 -16 42 -8 0 -18 5 -21 10 -3 6 3 10 14 10 12 0 21 -6 22 -12z"/>
<path d="M2552 2998 l3 -63 60 0 60 0 3 63 3 62 -66 0 -66 0 3 -62z"/>
<path d="M2810 2995 l0 -64 -62 -3 -63 -3 0 -55 0 -55 183 -3 182 -2 0 60 0
60 -39 0 c-66 0 -71 5 -71 71 l0 59 -65 0 -65 0 0 -65z"/>
<path d="M5356 3045 c-3 -9 -6 -37 -6 -61 0 -53 9 -59 85 -49 l55 6 -3 57 -3
57 -61 3 c-48 2 -62 0 -67 -13z"/>
<path d="M780 3039 c0 -5 5 -7 10 -4 6 3 10 8 10 11 0 2 -4 4 -10 4 -5 0 -10
-5 -10 -11z"/>
<path d="M2318 3039 c12 -12 89 -15 89 -4 0 5 -22 10 -48 10 -26 0 -45 -3 -41
-6z"/>
<path d="M3958 3028 c-2 -13 -1 -38 1 -55 l3 -33 59 0 59 0 0 55 0 55 -59 0
c-54 0 -60 -2 -63 -22z"/>
<path d="M4220 3010 c0 -16 2 -30 4 -30 2 0 6 14 8 30 3 17 1 30 -4 30 -4 0
-8 -13 -8 -30z"/>
<path d="M5990 3028 c0 -5 30 -7 68 -7 69 2 62 6 -20 11 -27 2 -48 0 -48 -4z"/>
<path d="M3378 3023 c12 -2 32 -2 45 0 12 2 2 4 -23 4 -25 0 -35 -2 -22 -4z"/>
<path d="M4240 3000 c0 -5 18 -10 40 -10 22 0 40 5 40 10 0 6 -18 10 -40 10
-22 0 -40 -4 -40 -10z"/>
<path d="M792 2975 c-1 -12 2 -15 6 -8 4 6 25 13 47 15 l40 3 -46 5 c-40 4
-45 3 -47 -15z"/>
<path d="M6028 2983 c17 -2 47 -2 65 0 17 2 3 4 -33 4 -36 0 -50 -2 -32 -4z"/>
<path d="M4231 2961 c-9 -6 -10 -11 -2 -15 6 -4 11 -2 11 4 0 8 15 11 44 9 24
-2 42 -1 39 4 -6 10 -75 9 -92 -2z"/>
<path d="M387 2923 c-9 -8 -9 -86 -1 -107 5 -12 21 -16 65 -16 l59 0 0 65 0
65 -58 0 c-32 0 -62 -3 -65 -7z"/>
<path d="M1167 2924 c-4 -4 -7 -27 -7 -51 0 -32 4 -43 15 -43 8 0 15 -5 15
-11 0 -6 -7 -9 -15 -6 -8 4 -17 2 -20 -3 -4 -6 -33 -10 -66 -10 l-59 0 0 -60
0 -60 190 0 190 0 0 -54 c0 -30 3 -57 8 -59 4 -2 30 -1 57 2 l50 7 -47 5 c-27
2 -50 0 -53 -6 -3 -5 -3 35 -1 90 2 64 1 84 -4 55 l-7 -45 -1 61 c-1 33 -5 64
-9 68 -5 4 -8 33 -8 63 0 37 -4 57 -13 59 -7 1 -8 0 -2 -3 11 -5 12 -69 1 -97
-7 -18 -8 -18 -14 -2 -6 16 -16 17 -86 11 l-80 -7 -3 48 c-3 44 -15 63 -31 48z
m176 -101 c-13 -2 -33 -2 -45 0 -13 2 -3 4 22 4 25 0 35 -2 23 -4z"/>
<path d="M2401 2883 c1 -53 6 -49 11 10 2 20 0 37 -4 37 -4 0 -8 -21 -7 -47z"/>
<path d="M3582 2921 c-17 -10 -12 -105 6 -107 6 -1 64 -2 127 -3 l115 -1 0
-65 0 -65 60 0 60 0 0 68 0 68 -52 3 c-29 1 -54 4 -57 7 -2 2 -5 25 -5 51 l-1
48 -120 2 c-66 1 -126 -2 -133 -6z"/>
<path d="M3920 2886 l0 -45 -42 -4 c-35 -3 -32 -4 17 -5 37 -1 55 2 46 7 -9 6
-12 22 -9 50 2 22 0 41 -4 41 -5 0 -8 -20 -8 -44z"/>
<path d="M4082 2873 l3 -58 58 -3 57 -3 0 61 0 60 -60 0 -61 0 3 -57z"/>
<path d="M938 2823 c7 -3 16 -2 19 1 4 3 -2 6 -13 5 -11 0 -14 -3 -6 -6z"/>
<path d="M774 2801 c-2 -2 -4 -31 -4 -63 l0 -58 60 0 61 0 -3 58 -3 57 -53 5
c-29 3 -55 4 -58 1z"/>
<path d="M2428 2804 c-5 -4 -8 -34 -8 -66 l0 -58 65 0 65 0 0 -65 0 -65 69 0
68 0 -5 123 c-2 67 -5 123 -6 123 -5 7 -243 14 -248 8z"/>
<path d="M4976 2773 c-15 -92 -12 -96 59 -96 67 0 65 -2 65 68 l0 65 -59 0
-58 0 -7 -37z"/>
<path d="M5473 2763 c9 -2 25 -2 35 0 9 3 1 5 -18 5 -19 0 -27 -2 -17 -5z"/>
<path d="M391 2615 l-2 -65 59 0 c46 0 61 4 66 16 3 9 3 20 0 26 -4 6 1 8 14
4 11 -4 23 -2 27 4 4 6 1 11 -6 9 -27 -3 -35 1 -35 21 0 11 5 20 11 20 5 1 -1
7 -15 15 -14 8 -46 14 -71 15 l-46 0 -2 -65z"/>
<path d="M1434 2666 c-3 -8 -4 -27 -2 -43 3 -26 7 -28 48 -31 l45 -3 -3 46 -4
45 -39 0 c-25 0 -42 -5 -45 -14z"/>
<path d="M2863 2672 l-63 -3 0 -59 0 -60 -55 0 -55 0 0 -60 0 -60 55 0 54 0 3
63 3 62 57 1 c32 0 60 3 63 6 3 3 5 30 3 59 l-3 54 -62 -3z"/>
<path d="M3700 2603 c0 -43 4 -73 8 -68 4 6 30 11 57 10 l50 0 10 -125 10
-125 65 -6 c36 -3 59 -6 51 -7 -10 -2 -12 -14 -9 -52 l5 -49 -61 -3 -61 -3 -3
-67 -3 -68 65 0 65 0 3 67 3 68 63 3 62 3 0 -70 0 -71 -60 0 -60 0 -1 -47 c-1
-27 -2 -55 -3 -63 -1 -11 -17 -16 -62 -18 l-61 -3 -7 -114 c-4 -63 -5 -119 -1
-125 3 -5 35 -10 71 -10 35 0 64 -4 64 -8 0 -5 26 -7 58 -7 31 1 40 0 20 -2
l-38 -4 0 -52 c0 -40 -3 -48 -12 -39 -16 16 -29 15 -22 -2 8 -20 -8 -27 -84
-36 l-67 -9 74 3 c55 3 76 8 83 19 7 14 25 15 118 11 l110 -6 0 126 0 126 -60
0 -60 0 0 65 0 64 63 3 62 3 3 65 c2 36 1 120 -3 188 l-7 123 -64 -2 c-35 -1
-67 1 -71 4 -3 4 -28 7 -55 7 -39 0 -48 3 -48 18 -1 54 -12 209 -16 220 -3 10
-21 13 -61 11 l-58 -3 -3 67 -3 67 -59 0 -60 0 0 -77z m300 -663 c-6 -11 -13
-20 -15 -20 -3 0 -5 9 -5 20 0 11 7 20 15 20 13 0 14 -4 5 -20z"/>
<path d="M4720 2615 l0 -65 -67 0 c-114 -1 -235 -8 -241 -14 -3 -3 8 -6 24 -6
28 0 29 -1 26 -44 -4 -42 -6 -45 -35 -49 -18 -3 12 -4 66 -3 l97 1 0 -67 0
-68 65 0 66 0 -1 113 c-1 61 -1 117 -1 124 1 8 24 13 64 15 l62 3 0 60 0 60
-62 3 -63 3 0 -66z"/>
<path d="M5223 2668 c-4 -7 -6 -24 -4 -37 4 -29 -13 -41 -61 -41 -47 0 -58
-19 -58 -99 0 -56 2 -61 24 -67 13 -3 41 -4 62 -2 l39 4 3 63 3 63 57 -4 57
-3 3 68 3 67 -60 0 c-37 0 -63 -5 -68 -12z m-3 -93 c0 -11 -12 -15 -50 -15
-61 0 -67 17 -7 23 23 2 45 4 50 5 4 1 7 -5 7 -13z"/>
<path d="M640 2649 c0 -19 -5 -21 -44 -18 -24 2 -42 1 -39 -3 2 -5 22 -8 44
-8 27 0 39 -4 39 -14 0 -11 15 -16 53 -19 l52 -3 -52 -2 c-64 -2 -71 -22 -9
-22 66 0 72 4 68 54 -4 48 -15 56 -79 56 -27 0 -33 -4 -33 -21z m87 -31 c-3
-8 -6 -5 -6 6 -1 11 2 17 5 13 3 -3 4 -12 1 -19z"/>
<path d="M5745 2598 c-4 -40 -5 -95 -3 -123 3 -47 5 -50 32 -53 16 -2 43 -1
60 2 31 6 31 6 30 68 l0 63 -55 5 c-42 4 -54 9 -55 23 -2 13 -1 13 3 2 3 -12
17 -15 54 -14 28 2 52 6 54 10 9 14 -33 48 -66 52 -29 3 -28 4 8 3 23 0 46 3
50 8 13 12 -20 26 -64 26 l-41 0 -7 -72z"/>
<path d="M2702 2630 c0 -19 2 -27 5 -17 2 9 2 25 0 35 -3 9 -5 1 -5 -18z"/>
<path d="M1760 2640 c0 -5 5 -10 11 -10 5 0 7 5 4 10 -3 6 -8 10 -11 10 -2 0
-4 -4 -4 -10z"/>
<path d="M4227 2603 c-4 -3 -7 -14 -7 -23 0 -15 7 -17 48 -12 63 6 70 15 9 10
-42 -3 -47 -1 -43 14 4 19 3 22 -7 11z"/>
<path d="M1680 2590 c0 -5 18 -10 40 -10 22 0 40 5 40 10 0 6 -18 10 -40 10
-22 0 -40 -4 -40 -10z"/>
<path d="M535 2570 c3 -5 8 -10 11 -10 2 0 4 5 4 10 0 6 -5 10 -11 10 -5 0 -7
-4 -4 -10z"/>
<path d="M1710 2570 c-63 -8 -57 -13 12 -10 41 1 47 -1 51 -22 3 -15 4 -12 4
10 -1 17 -4 31 -7 30 -3 -1 -30 -4 -60 -8z"/>
<path d="M1280 2485 l0 -66 58 3 57 3 3 63 3 62 -61 0 -60 0 0 -65z"/>
<path d="M4856 2535 c-3 -9 -6 -70 -6 -135 l0 -118 -65 6 -65 5 0 -50 0 -51
120 0 120 1 0 49 0 50 45 -4 c25 -2 45 1 45 6 0 27 15 -11 21 -52 l6 -47 2 43
c0 23 5 42 10 42 8 0 9 23 3 113 -2 26 -4 27 -62 27 l-60 0 0 60 0 60 -39 0
c-22 0 -46 3 -54 6 -8 3 -17 -2 -21 -11z"/>
<path d="M5354 2535 c-3 -8 -4 -35 -2 -60 2 -25 1 -45 -2 -46 -7 -2 -71 -7
-99 -8 l-24 -1 7 -117 c4 -65 9 -119 11 -122 10 -9 77 -11 93 -2 9 6 12 11 7
11 -6 0 -9 17 -7 41 3 26 0 44 -8 49 -7 4 24 7 69 6 l81 -1 0 71 c0 38 5 75
11 81 6 6 10 32 8 57 -3 27 0 46 6 46 5 0 10 -24 10 -52 l0 -53 43 -3 42 -3 0
54 0 54 -61 7 c-109 11 -179 8 -185 -9z"/>
<path d="M4351 2488 c1 -55 5 -50 11 15 2 20 0 37 -4 37 -4 0 -7 -24 -7 -52z"/>
<path d="M1674 2432 c5 -9 -10 -12 -51 -14 -32 0 -65 -1 -73 -2 -10 -1 -15
-14 -16 -41 -2 -64 8 -75 71 -75 l55 0 0 -70 0 -70 60 0 c41 0 60 4 61 13 0 6
1 37 2 67 l2 55 122 9 122 8 -2 49 -2 49 -56 0 c-31 0 -58 2 -61 5 -3 3 -53 7
-112 10 -60 3 -113 8 -119 12 -6 3 -7 1 -3 -5z m3 -38 c-3 -3 -12 -4 -19 -1
-8 3 -5 6 6 6 11 1 17 -2 13 -5z m338 -2 c-5 -4 -10 -20 -10 -37 0 -28 -3 -30
-42 -33 -26 -2 -43 1 -43 7 0 6 18 11 40 11 33 0 40 3 40 20 0 17 -7 20 -42
22 l-43 1 45 7 c68 11 66 10 55 2z m-440 -62 c3 -5 1 -10 -4 -10 -6 0 -11 5
-11 10 0 6 2 10 4 10 3 0 8 -4 11 -10z"/>
<path d="M2441 2422 l-24 -4 7 -116 c4 -63 9 -119 12 -124 3 -4 31 -8 62 -8
l57 0 -3 124 -3 124 -42 4 c-23 1 -53 1 -66 0z"/>
<path d="M88 2395 c-3 -14 -1 -25 3 -25 5 0 9 11 9 25 0 14 -2 25 -4 25 -2 0
-6 -11 -8 -25z"/>
<path d="M289 2413 l-26 -4 -2 -116 c-1 -64 -4 -120 -7 -125 -3 -4 -61 -8
-130 -8 l-124 0 0 -120 0 -120 60 0 60 0 0 60 0 60 76 0 76 0 -4 57 -3 58 51
1 51 1 7 -95 c5 -73 4 -97 -6 -104 -10 -6 -10 -8 0 -8 6 0 12 -4 12 -10 0 -5
-10 -10 -22 -10 -12 0 -19 -2 -16 -5 3 -3 97 -6 209 -6 l204 -1 3 61 3 61 -70
0 -70 0 -4 43 -4 42 -1 -42 c-1 -31 -6 -43 -17 -43 -16 0 -20 34 -9 89 5 24
10 29 19 21 15 -13 24 64 23 193 -1 85 -2 86 -77 71 -31 -6 -31 -7 -31 -66 0
-43 -4 -60 -15 -64 -18 -7 -21 -74 -4 -91 9 -9 3 -13 -23 -18 -20 -4 -46 -5
-59 -3 -21 3 -24 9 -27 58 -2 30 -7 62 -11 70 -4 8 -7 36 -7 62 1 39 -2 48
-16 48 -9 0 -22 2 -30 3 -7 2 -25 2 -39 0z m48 -95 c-3 -8 -6 -5 -6 6 -1 11 2
17 5 13 3 -3 4 -12 1 -19z m217 -157 c16 -7 23 -16 21 -28 -2 -10 -4 -35 -4
-55 -1 -58 -21 -45 -23 15 l-2 52 -3 -52 c-6 -75 -23 -66 -23 12 0 36 2 65 4
65 3 0 16 -4 30 -9z m-91 -228 c-13 -2 -33 -2 -45 0 -13 2 -3 4 22 4 25 0 35
-2 23 -4z"/>
<path d="M899 2408 c0 -7 -1 -33 -1 -58 0 -63 -2 -65 -59 -61 -28 1 -55 -1
-59 -5 -5 -5 -10 -61 -12 -124 l-3 -115 72 -3 72 -3 4 48 3 48 2 -47 2 -48 45
0 45 0 0 70 0 70 -27 -7 c-35 -9 -73 -8 -82 4 -4 4 -6 31 -3 59 l4 50 53 -1
c30 0 56 -3 59 -6 3 -2 6 -26 7 -52 l3 -47 53 0 53 0 -2 58 -2 57 -3 -52 -4
-53 -40 0 -39 0 0 51 c0 31 -4 48 -10 44 -6 -4 -10 20 -10 64 l0 71 -60 0
c-41 0 -60 -4 -61 -12z"/>
<path d="M1165 2410 c-4 -6 -4 -27 0 -47 4 -24 3 -33 -4 -28 -6 3 -11 0 -11
-8 0 -8 7 -17 15 -21 11 -4 15 2 15 27 0 22 3 28 9 18 5 -7 6 -22 4 -32 -3
-10 0 -19 6 -19 6 0 11 9 11 21 0 11 4 18 9 15 11 -7 23 37 15 58 -3 9 -12 16
-19 16 -7 0 -20 3 -28 6 -8 3 -18 0 -22 -6z m32 -25 c0 -8 -6 -15 -14 -15 -7
0 -13 7 -13 15 0 8 6 15 13 15 8 0 14 -7 14 -15z m33 -17 c0 -5 -4 -8 -10 -8
-5 0 -10 10 -10 23 0 18 2 19 10 7 5 -8 10 -18 10 -22z"/>
<path d="M2808 2355 l4 -65 59 0 59 0 0 -125 0 -125 65 0 65 0 2 -57 c0 -32 0
-66 -1 -77 -1 -16 1 -17 14 -6 12 10 15 9 16 -6 0 -15 2 -16 7 -4 8 17 23 18
62 7 23 -7 25 -12 22 -52 -4 -41 -6 -45 -31 -45 -15 0 -33 -6 -40 -12 -11 -10
-14 -10 -18 0 -3 6 -9 12 -14 12 -10 0 -13 -133 -3 -143 3 -3 17 -2 30 3 16 7
24 6 24 -1 0 -7 10 -9 26 -5 l26 7 -4 -60 c-4 -70 -2 -71 78 -71 l54 0 0 49
c0 77 4 81 71 81 l59 0 0 60 0 59 -62 3 -63 3 -5 60 -5 60 -60 1 -60 1 0 64 0
64 -62 3 -63 3 0 64 0 65 65 0 65 0 0 125 0 125 -192 0 -193 0 3 -65z"/>
<path d="M5965 2413 c-36 -4 -54 -16 -55 -35 0 -5 21 -9 48 -9 26 -1 37 -4 25
-6 -13 -2 -23 -9 -23 -14 0 -5 -7 -9 -16 -9 -8 0 -12 5 -9 10 3 6 1 10 -4 10
-6 0 -11 -6 -11 -12 0 -9 -4 -8 -10 2 -6 10 -10 11 -10 3 0 -7 -4 -13 -9 -13
-5 0 -5 15 -1 35 4 19 4 35 0 35 -11 0 -21 -69 -23 -160 l-2 -75 -64 0 -65 0
3 58 2 58 -123 -3 -123 -3 -3 -42 c-2 -34 0 -43 12 -43 9 0 16 -4 16 -10 0 -5
-7 -7 -15 -4 -10 4 -18 -3 -26 -22 -10 -27 -9 -63 4 -326 l2 -48 63 0 63 0 -3
-62 -3 -63 -122 -3 -123 -3 -1 -72 c-1 -40 -1 -91 1 -115 3 -59 -11 -72 -76
-72 l-54 0 0 130 0 130 -69 0 -68 0 -1 48 c0 26 0 53 -1 59 -1 17 -24 12 -33
-7 -5 -12 -7 -12 -7 3 -1 13 -10 17 -35 17 -19 0 -38 -5 -41 -11 -8 -13 -7
-202 1 -224 5 -11 21 -15 65 -15 l58 0 3 -122 3 -123 128 -3 127 -3 0 61 0 60
64 0 c59 0 65 2 69 23 4 22 4 22 16 -3 10 -21 11 -16 6 38 l-5 62 48 0 c27 0
52 3 56 7 4 4 31 8 59 8 l52 0 8 65 c4 36 10 91 13 123 l6 57 44 0 c35 0 44
-4 44 -17 0 -14 3 -12 13 6 12 23 15 23 140 22 l127 -2 0 60 0 59 -66 4 c-36
1 -67 1 -69 -2 -2 -3 -59 -3 -127 0 l-123 5 -3 63 -3 62 70 0 70 0 3 63 3 62
123 3 122 3 0 124 0 125 -57 -2 c-32 -1 -76 -3 -98 -5z m15 -103 c0 -5 -5 -10
-11 -10 -5 0 -7 5 -4 10 3 6 8 10 11 10 2 0 4 -4 4 -10z"/>
<path d="M18 2403 c12 -2 32 -2 45 0 12 2 2 4 -23 4 -25 0 -35 -2 -22 -4z"/>
<path d="M113 2360 c0 -30 2 -43 4 -27 2 15 2 39 0 55 -2 15 -4 2 -4 -28z"/>
<path d="M1246 2395 c4 -8 10 -15 15 -15 4 0 6 7 3 15 -4 8 -10 15 -15 15 -4
0 -6 -7 -3 -15z"/>
<path d="M3986 2385 c15 -23 33 -37 20 -16 -4 5 0 12 6 14 8 3 6 6 -4 6 -10 1
-18 6 -18 11 0 6 -5 10 -10 10 -6 0 -3 -11 6 -25z"/>
<path d="M1252 2340 c0 -19 2 -27 5 -17 2 9 2 25 0 35 -3 9 -5 1 -5 -18z"/>
<path d="M18 2313 c12 -2 32 -2 45 0 12 2 2 4 -23 4 -25 0 -35 -2 -22 -4z"/>
<path d="M400 2245 l0 -45 39 0 39 0 4 45 3 45 -42 0 -43 0 0 -45z"/>
<path d="M1403 2231 l5 -61 -64 0 -64 0 0 -65 0 -65 123 0 122 0 0 123 0 122
-64 3 -64 3 6 -60z"/>
<path d="M2174 2275 c-4 -9 -4 -34 -1 -55 8 -61 -8 -74 -79 -67 -32 3 -50 2
-39 -1 11 -4 20 -13 21 -19 1 -7 2 -31 3 -53 l1 -40 105 0 105 0 0 -63 c0 -35
5 -68 12 -75 6 -6 9 -15 5 -19 -4 -4 -13 -1 -19 5 -7 7 -21 12 -32 12 -17 0
-18 -2 -6 -10 10 -6 11 -10 3 -10 -9 0 -13 -15 -13 -44 l0 -43 40 3 c22 1 40
-2 40 -7 0 -5 21 -9 46 -9 38 0 45 3 40 16 -3 9 -6 33 -6 54 0 38 0 39 -42 43
-41 3 -41 4 10 5 l52 2 0 135 0 135 -67 0 -68 0 0 57 0 58 -53 3 c-41 2 -54
-1 -58 -13z m78 -47 c2 -20 0 -34 -4 -32 -4 3 -8 24 -7 47 1 47 6 41 11 -15z
m-109 -95 c-13 -2 -33 -2 -45 0 -13 2 -3 4 22 4 25 0 35 -2 23 -4z"/>
<path d="M3325 2277 c-2 -7 -6 -34 -7 -62 l-3 -50 -62 -3 -63 -3 0 -59 0 -60
71 0 71 0 -3 -42 c-2 -24 0 -44 4 -45 21 -8 27 1 27 42 l0 45 40 0 40 0 0 -55
0 -55 -52 0 c-96 0 -41 -11 73 -14 l114 -4 3 -61 3 -61 54 0 55 0 0 125 0 125
-66 0 -66 0 2 78 c1 42 2 98 1 124 l-1 47 -115 0 c-82 0 -117 -3 -120 -12z
m219 -136 c4 -5 4 -16 0 -24 -8 -21 -68 -16 -72 6 -4 20 33 24 41 5 3 -8 6 -6
6 5 1 18 16 23 25 8z m-2 -66 c3 -11 -46 -19 -68 -11 -9 3 -12 10 -9 16 8 13
74 9 77 -5z"/>
<path d="M4342 2233 l3 -58 55 -1 c80 -2 79 -1 75 -31 -2 -16 -4 -45 -4 -65
l-1 -38 -65 0 -65 0 0 -43 c0 -24 6 -49 13 -56 6 -8 7 -11 1 -8 -8 5 -11 -15
-10 -66 l1 -72 53 -1 52 -1 0 58 c0 40 4 59 13 60 6 0 37 1 67 2 l55 2 3 63
c2 38 -1 62 -8 62 -5 0 -10 20 -10 44 0 34 4 46 18 49 9 3 -11 2 -45 -1 -44
-3 -63 -1 -63 7 0 9 55 17 95 12 6 0 9 27 7 69 l-4 70 -119 0 -120 0 3 -57z"/>
<path d="M4969 2235 l-4 -50 -45 -6 -45 -6 40 -1 c64 -1 71 6 64 63 l-5 50 -5
-50z"/>
<path d="M958 2193 c6 -2 18 -2 25 0 6 3 1 5 -13 5 -14 0 -19 -2 -12 -5z"/>
<path d="M2645 2190 c-3 -5 -1 -10 4 -10 6 0 11 5 11 10 0 6 -2 10 -4 10 -3 0
-8 -4 -11 -10z"/>
<path d="M5000 2189 c0 -5 5 -7 10 -4 6 3 10 8 10 11 0 2 -4 4 -10 4 -5 0 -10
-5 -10 -11z"/>
<path d="M5040 2189 c0 -5 9 -9 20 -9 11 0 20 2 20 4 0 2 -9 6 -20 9 -11 3
-20 1 -20 -4z"/>
<path d="M418 2183 c12 -2 32 -2 45 0 12 2 2 4 -23 4 -25 0 -35 -2 -22 -4z"/>
<path d="M2687 2127 c6 -93 11 -101 12 -20 0 39 -3 74 -7 77 -5 3 -7 -23 -5
-57z"/>
<path d="M2714 2115 l1 -70 43 -3 42 -3 0 60 0 61 -39 0 c-22 0 -41 5 -43 12
-3 7 -4 -19 -4 -57z"/>
<path d="M4758 2173 c23 -2 59 -2 80 0 20 2 1 4 -43 4 -44 0 -61 -2 -37 -4z"/>
<path d="M5106 2129 c-3 -17 -6 -44 -6 -60 0 -29 0 -29 -65 -29 l-65 0 0 -65
0 -65 49 0 c27 0 56 -3 65 -6 14 -5 16 4 16 65 l0 71 59 0 59 0 4 43 c7 71 3
77 -57 77 -51 0 -53 -1 -59 -31z"/>
<path d="M5360 2140 c0 -5 20 -10 45 -10 25 0 45 5 45 10 0 6 -20 10 -45 10
-25 0 -45 -4 -45 -10z"/>
<path d="M2044 2124 c3 -9 6 -31 6 -50 0 -19 5 -34 10 -34 6 0 10 18 10 40 0
22 -5 40 -11 40 -5 0 -7 5 -4 10 3 6 1 10 -5 10 -7 0 -9 -7 -6 -16z"/>
<path d="M1150 1980 c0 -65 -4 -62 70 -64 44 -2 50 7 50 72 l0 52 -60 0 -60 0
0 -60z"/>
<path d="M1535 2016 c-3 -11 -5 -66 -3 -121 l3 -100 55 0 55 0 3 122 3 122
-56 0 c-48 -1 -56 -4 -60 -23z"/>
<path d="M5360 1995 l0 -45 45 0 45 0 0 45 0 45 -45 0 -45 0 0 -45z"/>
<path d="M4720 1995 l0 -36 58 3 c56 3 57 3 57 33 -1 29 -2 30 -58 33 l-57 3
0 -36z"/>
<path d="M321 1944 c0 -11 3 -14 6 -6 3 7 2 16 -1 19 -3 4 -6 -2 -5 -13z"/>
<path d="M4825 1950 c-3 -5 1 -10 10 -10 9 0 13 5 10 10 -3 6 -8 10 -10 10 -2
0 -7 -4 -10 -10z"/>
<path d="M290 1940 c0 -5 5 -10 10 -10 6 0 10 5 10 10 0 6 -4 10 -10 10 -5 0
-10 -4 -10 -10z"/>
<path d="M2098 1943 c12 -2 32 -2 45 0 12 2 2 4 -23 4 -25 0 -35 -2 -22 -4z"/>
<path d="M4743 1943 c15 -2 37 -2 50 0 12 2 0 4 -28 4 -27 0 -38 -2 -22 -4z"/>
<path d="M5400 1930 l-45 -7 48 -1 c26 -1 47 3 47 8 0 6 -1 9 -2 8 -2 0 -23
-4 -48 -8z"/>
<path d="M4748 1923 c17 -2 47 -2 65 0 17 2 3 4 -33 4 -36 0 -50 -2 -32 -4z"/>
<path d="M1280 1785 l0 -126 55 2 c30 1 58 -1 62 -4 3 -4 6 -31 5 -62 l0 -55
65 0 64 0 -5 113 c-3 61 -5 116 -5 121 -1 5 -26 6 -56 4 -31 -3 -59 0 -62 5
-3 5 -6 35 -7 66 l-1 56 -57 3 -58 3 0 -126z"/>
<path d="M1794 1896 c-3 -7 -4 -33 -2 -57 l3 -44 55 0 55 0 3 37 c5 59 -11 78
-64 78 -29 0 -47 -5 -50 -14z"/>
<path d="M2218 1905 c-3 -3 -4 -29 -2 -58 l3 -52 -7 47 c-8 49 -17 66 -29 54
-4 -4 -2 -10 4 -14 6 -4 13 -25 15 -46 2 -22 9 -41 16 -44 9 -3 12 13 12 57 0
60 -1 66 -12 56z"/>
<path d="M2550 1850 l0 -60 50 -1 c28 -1 56 -2 63 -3 8 -1 13 -23 15 -64 l3
-63 62 3 62 3 -1 55 c0 30 -1 85 -2 123 l-2 67 -125 0 -125 0 0 -60z"/>
<path d="M5255 1893 c17 -3 20 -10 17 -53 -5 -64 -22 -65 -23 -2 l-1 47 -9
-60 c-5 -33 -8 -82 -7 -110 l3 -50 58 -3 57 -3 0 71 c0 64 -2 71 -18 66 -15
-5 -17 0 -14 39 3 28 0 45 -7 45 -6 0 -11 -19 -11 -46 0 -27 -4 -43 -10 -39
-5 3 -10 24 -10 45 0 35 3 40 28 46 49 11 48 12 -13 12 -33 0 -51 -3 -40 -5z"/>
<path d="M134 1781 c-2 -2 -4 -28 -4 -57 0 -52 0 -53 34 -59 18 -4 44 -5 57
-3 22 3 24 9 27 60 l3 56 -56 4 c-31 1 -59 1 -61 -1z"/>
<path d="M698 1782 l-58 -3 0 -59 0 -60 44 0 c26 0 47 -5 50 -12 5 -10 7 -10
12 0 4 8 29 12 75 12 l69 0 0 59 0 59 -67 4 c-38 2 -94 2 -125 0z"/>
<path d="M1025 1768 c-7 -22 -1 -93 10 -100 14 -10 77 -10 93 1 9 5 12 25 10
57 l-3 49 -53 3 c-36 2 -54 -1 -57 -10z"/>
<path d="M1668 1728 c-2 -30 1 -56 7 -60 15 -11 93 -10 100 2 3 6 0 10 -7 10
-10 0 -11 2 0 8 8 5 11 24 10 48 l-3 39 -52 3 -51 3 -4 -53z"/>
<path d="M2040 1713 l0 -68 62 5 63 5 3 63 3 62 -66 0 -65 0 0 -67z"/>
<path d="M4470 1723 l0 -58 55 3 55 4 0 54 0 54 -55 0 -55 0 0 -57z"/>
<path d="M4898 1763 c12 -2 32 -2 45 0 12 2 2 4 -23 4 -25 0 -35 -2 -22 -4z"/>
<path d="M4898 1723 c12 -2 32 -2 45 0 12 2 2 4 -23 4 -25 0 -35 -2 -22 -4z"/>
<path d="M4862 1695 c0 -16 2 -22 5 -12 2 9 2 23 0 30 -3 6 -5 -1 -5 -18z"/>
<path d="M4898 1703 c12 -2 32 -2 45 0 12 2 2 4 -23 4 -25 0 -35 -2 -22 -4z"/>
<path d="M5803 1693 c-57 -5 -55 -23 2 -23 33 0 45 4 45 15 0 8 -1 14 -2 13
-2 -1 -22 -3 -45 -5z"/>
<path d="M2310 1658 c-1 -1 -2 -33 -3 -70 l-3 -67 56 -3 c50 -3 55 -5 54 -25
0 -13 4 -23 10 -23 6 0 6 -4 -1 -11 -6 -6 -9 -17 -6 -25 6 -17 -37 -28 -82
-21 -40 7 -45 -2 -45 -79 l0 -54 65 0 65 0 0 65 c0 45 4 65 13 66 6 0 34 2 61
2 l50 2 -2 40 c-6 140 -18 194 -42 195 -3 0 -4 -20 -2 -45 2 -25 8 -45 14 -45
5 0 6 -4 3 -10 -14 -23 -24 -7 -27 42 -3 46 -6 52 -28 56 -40 6 -150 14 -150
10z"/>
<path d="M2537 1606 c7 -77 6 -76 73 -76 l60 0 0 65 0 66 -68 -2 -69 -2 4 -51z"/>
<path d="M273 1595 c0 -33 2 -45 4 -27 2 18 2 45 0 60 -2 15 -4 0 -4 -33z"/>
<path d="M303 1644 c-21 -9 -14 -104 7 -104 4 0 6 21 5 48 l-3 47 8 -40 7 -40
1 43 c1 23 7 42 12 42 15 0 12 -87 -2 -93 -8 -4 -9 -6 -2 -6 21 -2 35 27 32
66 -3 32 -7 38 -28 40 -14 1 -31 -1 -37 -3z"/>
<path d="M2816 1642 c-3 -3 -6 -59 -6 -124 l0 -118 51 0 c60 0 91 14 82 36 -5
14 2 16 51 13 48 -4 56 -2 56 14 0 13 -10 17 -47 19 l-48 1 44 6 c70 10 65 31
-8 31 -42 0 -61 4 -62 13 -1 6 -2 35 -3 62 l-1 50 -52 1 c-28 1 -54 -1 -57 -4z
m223 -136 c-9 -8 -99 -13 -99 -5 0 5 23 9 52 9 28 0 49 -2 47 -4z m0 -42 c2
-2 -19 -4 -47 -4 -29 0 -52 4 -52 9 0 8 90 3 99 -5z"/>
<path d="M4590 1585 l0 -65 -91 0 c-61 0 -88 -3 -84 -11 4 -6 13 -8 21 -5 19
7 30 -14 13 -25 -12 -7 -12 -9 0 -9 10 0 11 -3 2 -13 -6 -8 -8 -17 -4 -20 3
-4 -25 -8 -63 -8 -133 -3 10 -14 176 -14 l155 0 1 55 c1 30 2 58 3 63 1 4 27
7 59 7 l57 0 -3 55 -4 55 -119 0 -119 0 0 -65z m217 -7 c-2 -13 -4 -3 -4 22 0
25 2 35 4 23 2 -13 2 -33 0 -45z"/>
<path d="M3093 1600 c0 -25 2 -35 4 -22 2 12 2 32 0 45 -2 12 -4 2 -4 -23z"/>
<path d="M725 1550 c-3 -5 -2 -10 4 -10 5 0 13 5 16 10 3 6 2 10 -4 10 -5 0
-13 -4 -16 -10z"/>
<path d="M2051 1540 c-1 -14 -4 -49 -7 -77 l-7 -53 62 0 61 0 1 40 c1 22 2 47
2 55 0 36 -3 38 -53 33 -39 -4 -50 -2 -53 11 -3 9 -5 5 -6 -9z"/>
<path d="M3128 1543 c7 -3 16 -2 19 1 4 3 -2 6 -13 5 -11 0 -14 -3 -6 -6z"/>
<path d="M384 1517 c-3 -8 -4 -34 -2 -58 l3 -44 64 0 64 0 0 55 0 55 -62 3
c-46 2 -63 -1 -67 -11z"/>
<path d="M788 1523 c-20 -5 -24 -23 -20 -75 l4 -37 57 -3 56 -3 3 -67 3 -68
60 0 c42 0 65 5 77 16 11 12 28 15 64 12 27 -3 46 -2 41 3 -4 4 -28 9 -53 11
l-45 3 -3 43 -3 42 45 0 c37 0 46 3 46 18 1 16 1 16 14 0 10 -14 28 -18 80
-18 l67 0 -4 -122 c-5 -140 -18 -220 -31 -199 -7 11 -10 11 -16 0 -7 -10 -12
-10 -23 -1 -12 10 -14 8 -13 -10 1 -17 -6 -25 -24 -30 -14 -3 3 -4 38 -1 43 4
62 2 62 -6 0 -7 24 -11 66 -11 l67 0 -8 130 -7 129 69 3 68 3 3 58 3 57 -66 0
-65 0 0 49 c0 83 4 81 -134 81 l-123 0 -10 -42 c-5 -24 -9 -33 -8 -20 2 20 -2
22 -45 22 l-47 0 1 -40 c2 -48 -8 -53 -94 -48 l-55 3 0 60 0 60 -40 2 c-22 0
-48 -1 -57 -4z m470 -470 c-10 -2 -28 -2 -40 0 -13 2 -5 4 17 4 22 1 32 -1 23
-4z"/>
<path d="M3440 1465 l0 -65 65 0 65 0 0 -60 0 -60 59 0 59 0 5 73 c10 135 9
132 40 132 15 -1 27 3 27 7 0 4 -17 8 -37 8 -25 0 -33 3 -25 9 25 15 -14 21
-139 21 l-119 0 0 -65z"/>
<path d="M3750 1520 c-9 -6 -10 -10 -3 -10 6 0 15 5 18 10 8 12 4 12 -15 0z"/>
<path d="M5990 1465 l0 -65 65 0 65 0 0 65 0 65 -65 0 -65 0 0 -65z"/>
<path d="M1037 1508 c2 -5 24 -8 49 -8 24 0 44 3 44 8 0 4 -22 7 -49 7 -27 0
-47 -3 -44 -7z"/>
<path d="M4280 1510 l-45 -7 52 -1 c28 -1 55 3 58 8 7 11 4 11 -65 0z"/>
<path d="M4382 1499 c10 -17 10 -23 1 -26 -7 -3 -13 -9 -13 -14 0 -15 20 -10
43 12 15 14 17 18 5 14 -11 -4 -18 0 -23 14 -3 12 -11 21 -16 21 -5 0 -4 -10
3 -21z"/>
<path d="M5520 1500 c0 -5 18 -10 40 -10 22 0 40 5 40 10 0 6 -18 10 -40 10
-22 0 -40 -4 -40 -10z"/>
<path d="M4220 1452 c-2 -26 -4 -74 -4 -107 l-1 -60 58 -3 57 -4 0 61 0 61
-51 0 -51 0 3 45 c4 60 -6 67 -11 7z"/>
<path d="M3880 1480 l45 -6 -45 -5 c-43 -4 -45 -6 -52 -44 -5 -22 -7 -65 -6
-95 l3 -55 55 -3 c34 -2 69 3 90 12 28 12 31 15 13 16 -21 0 -23 4 -21 53 l1
52 6 -44 c9 -63 31 -67 29 -4 l-1 48 -7 -45 -7 -45 -1 41 c-2 54 -20 67 -90
67 l-57 -1 47 7 c54 8 82 26 59 40 -11 7 -11 9 0 14 8 3 -13 5 -46 5 -59 -1
-59 -1 -15 -8z m40 -30 c0 -5 -18 -10 -40 -10 -22 0 -40 5 -40 10 0 6 18 10
40 10 22 0 40 -4 40 -10z"/>
<path d="M3775 1470 c3 -5 10 -10 16 -10 5 0 9 5 9 10 0 6 -7 10 -16 10 -8 0
-12 -4 -9 -10z"/>
<path d="M3773 1443 c-18 -6 -16 -23 1 -23 17 0 30 16 19 23 -5 2 -14 2 -20 0z"/>
<path d="M2983 1423 c15 -2 37 -2 50 0 12 2 0 4 -28 4 -27 0 -38 -2 -22 -4z"/>
<path d="M142 1347 l-2 -58 52 3 53 3 1 50 c1 35 0 39 -3 13 -4 -37 -5 -38
-44 -38 -24 0 -40 -5 -41 -12 -1 -7 -4 12 -8 42 l-7 55 -1 -58z"/>
<path d="M1773 1360 c0 -25 2 -35 4 -22 2 12 2 32 0 45 -2 12 -4 2 -4 -23z"/>
<path d="M3326 1339 c-3 -34 -6 -91 -6 -125 l0 -64 60 0 60 0 0 71 0 71 -50
-4 c-45 -3 -50 -1 -49 17 0 11 3 14 6 8 3 -8 22 -12 51 -11 l47 1 -42 4 -43 4
0 45 c0 30 -4 44 -14 44 -9 0 -15 -20 -20 -61z"/>
<path d="M5740 1340 l0 -61 58 3 57 3 3 58 3 57 -61 0 -60 0 0 -60z"/>
<path d="M520 1304 c0 -8 5 -12 10 -9 6 4 8 11 5 16 -9 14 -15 11 -15 -7z"/>
<path d="M550 1310 c0 -5 5 -10 10 -10 6 0 10 5 10 10 0 6 -4 10 -10 10 -5 0
-10 -4 -10 -10z"/>
<path d="M600 1309 c0 -5 5 -7 10 -4 6 3 10 8 10 11 0 2 -4 4 -10 4 -5 0 -10
-5 -10 -11z"/>
<path d="M1671 1304 c0 -11 3 -14 6 -6 3 7 2 16 -1 19 -3 4 -6 -2 -5 -13z"/>
<path d="M2558 1274 c-5 -4 -8 -13 -8 -21 0 -17 87 -18 92 -1 3 9 6 9 12 0 4
-7 2 -12 -3 -12 -6 0 -11 -18 -11 -39 0 -40 0 -40 -42 -44 -28 -3 -22 -4 17
-3 l60 1 3 -127 3 -128 59 0 60 0 0 126 0 126 133 -7 132 -7 0 66 0 66 -185 0
c-102 0 -214 3 -250 6 -36 3 -68 2 -72 -2z"/>
<path d="M0 1206 l0 -63 73 -7 c39 -3 95 -10 122 -14 l50 -8 -65 -5 c-47 -4
-71 -2 -87 8 -12 8 -37 13 -60 10 l-38 -4 43 -1 c52 -2 55 -19 5 -25 -21 -2
-14 -3 14 -1 29 1 53 -1 53 -6 0 -5 -24 -11 -53 -13 -28 -2 -25 -2 8 -1 33 2
87 6 120 8 57 4 58 4 15 -4 -25 -5 -62 -12 -82 -16 -21 -3 -38 -9 -38 -14 0
-4 21 -3 48 1 26 4 63 8 82 7 21 0 9 -4 -30 -10 -36 -5 -69 -14 -75 -20 -7 -7
-1 -8 20 -2 40 11 108 9 178 -6 80 -17 89 -11 85 50 -3 28 -1 53 4 56 31 19
-70 24 -173 9 -72 -11 -89 3 -89 75 l0 60 -65 0 -65 0 0 -64z"/>
<path d="M395 1261 c-9 -15 12 -22 60 -20 46 3 58 12 29 23 -24 9 -82 7 -89
-3z m68 -8 c-13 -2 -33 -2 -45 0 -13 2 -3 4 22 4 25 0 35 -2 23 -4z"/>
<path d="M1795 1260 c-4 -6 -5 -32 -4 -58 1 -27 0 -53 -4 -58 -3 -6 -7 -30 -8
-55 -4 -70 -4 -70 -196 -71 l-43 0 0 -59 0 -59 56 0 c34 0 53 4 49 10 -3 6 -1
10 4 10 6 0 12 -8 12 -17 3 -44 -2 -245 -7 -310 -6 -72 -7 -73 -35 -73 -27 0
-29 3 -29 40 0 29 4 40 15 40 8 0 15 7 15 15 0 12 -3 12 -20 -2 -13 -12 -20
-30 -20 -55 0 -36 -6 -42 -35 -39 -7 0 -11 -24 -11 -62 l0 -62 71 -5 c38 -3
94 -3 123 -2 l52 4 0 59 0 59 68 1 c37 0 96 0 132 0 l65 1 -3 59 -4 59 61 0
c42 0 61 -4 62 -12 0 -7 0 -34 -1 -60 l-1 -48 75 0 76 0 -1 -27 c-1 -16 1 -44
4 -64 7 -44 0 -47 -88 -41 -201 14 -197 16 -194 -94 1 -41 -1 -78 -5 -82 -4
-4 -6 32 -4 81 2 53 -1 87 -7 87 -6 0 -10 -37 -10 -90 0 -68 3 -90 13 -90 9 0
12 -10 10 -27 l-3 -28 72 -3 72 -3 3 62 3 62 62 3 63 3 -3 -60 c-2 -33 1 -63
6 -66 5 -3 31 -6 58 -7 36 -1 50 3 53 14 9 33 5 220 -4 220 -6 0 -10 -20 -10
-45 l0 -45 -45 0 -45 0 0 48 0 48 40 -4 c22 -2 46 1 54 7 15 13 46 15 94 8 29
-5 34 -2 43 21 5 14 9 37 7 51 -5 50 -14 53 -123 49 -55 -3 -79 -3 -52 -1 l47
4 0 70 0 69 49 0 c26 0 76 -3 110 -6 l61 -7 1 -56 2 -56 7 50 c4 28 5 53 3 57
-2 4 1 9 7 13 5 3 10 33 10 66 l0 59 -60 0 -60 0 0 130 0 131 -62 -3 -63 -3
-3 -70 -3 -70 -56 4 c-48 2 -55 1 -50 -13 3 -8 1 -19 -6 -23 -7 -5 11 -10 43
-13 43 -4 55 -9 55 -22 0 -9 4 -20 8 -24 4 -4 7 -38 7 -76 l0 -68 -127 0 -128
0 0 122 0 123 -62 3 -63 3 0 -131 0 -130 -54 0 c-81 0 -83 2 -78 70 l4 60 -60
0 c-34 0 -63 4 -66 8 -3 5 -6 64 -7 133 l-1 124 71 -3 c68 -4 70 -3 69 20 -3
79 0 87 40 91 32 3 31 4 -8 3 l-45 0 3 67 c4 62 2 67 -17 67 -17 0 -20 -7 -24
-57 l-3 -58 -2 58 c-2 56 -2 57 -31 57 -17 0 -33 -5 -36 -10z m42 -16 c-3 -3
-12 -4 -19 -1 -8 3 -5 6 6 6 11 1 17 -2 13 -5z m577 -789 c-4 -8 -8 -15 -10
-15 -2 0 -4 7 -4 15 0 8 4 15 10 15 5 0 7 -7 4 -15z"/>
<path d="M2042 1213 l3 -58 60 -3 60 -3 -3 61 -4 60 -59 0 -60 0 3 -57z"/>
<path d="M4604 1210 c1 -33 5 -60 9 -60 4 0 7 27 6 60 -3 78 -15 78 -15 0z"/>
<path d="M4675 1260 c-49 -6 -49 -6 -15 -11 l35 -6 -32 -1 c-32 -2 -33 -4 -33
-44 l0 -43 98 -3 c53 -1 102 1 109 5 13 9 20 83 9 101 -8 13 -82 14 -171 2z"/>
<path d="M4965 1264 c6 -2 8 -27 5 -62 l-5 -57 -42 -3 c-32 -2 -43 -8 -44 -20
-1 -11 -4 -8 -9 8 -8 25 -8 25 -10 -5 -3 -44 -8 -92 -18 -162 l-8 -63 97 0
c53 0 143 -3 202 -6 l105 -7 -5 -125 -6 -124 121 3 c66 2 124 7 128 11 4 4 9
30 12 58 l5 50 52 0 53 0 4 -51 c1 -28 1 -53 -1 -55 -2 -2 -28 -4 -57 -4 -57
0 -59 -2 -63 -68 -3 -74 3 -82 65 -82 46 0 54 -3 54 -19 0 -15 -9 -20 -45 -23
-38 -3 -45 0 -48 17 -2 11 -5 -3 -6 -32 0 -28 -5 -55 -11 -58 -5 -3 -10 -26
-10 -50 0 -76 2 -75 -131 -75 l-119 0 0 -65 0 -65 65 0 65 0 0 -65 0 -65 245
0 245 0 0 65 0 65 73 0 72 0 2 127 c1 81 -2 122 -7 113 -8 -12 -10 -12 -10 -1
0 11 -13 12 -60 8 l-60 -6 0 69 0 69 -122 3 -123 3 -3 39 c-7 85 -7 85 129 88
l121 3 -2 188 c-1 146 2 187 12 188 7 1 66 1 131 -1 l117 -2 0 126 0 126 -70
0 c-51 0 -69 -3 -67 -12 1 -8 -6 -12 -18 -10 -12 2 -16 0 -9 -5 6 -4 13 -26
15 -48 4 -40 4 -40 -31 -41 l-35 -1 0 48 c0 56 12 52 18 -6 3 -29 4 -24 4 17
0 52 -2 57 -21 54 -19 -3 -21 -9 -18 -53 4 -61 -2 -66 -83 -67 l-60 -1 -5 -65
-5 -65 -55 0 c-30 0 -58 -4 -62 -10 -4 -5 -8 25 -8 68 l0 77 -33 0 c-19 0 -75
-3 -125 -6 -82 -6 -92 -9 -92 -27 0 -16 -6 -19 -44 -16 -24 2 -42 1 -39 -3 2
-5 22 -8 43 -8 36 0 39 -2 38 -29 -1 -27 -3 -29 -61 -35 -33 -3 -90 -6 -127
-6 l-67 0 -7 105 c-4 58 -4 111 0 117 11 18 -18 28 -81 27 -33 0 -55 -2 -50
-5z m-17 -221 c-16 -2 -40 -2 -55 0 -16 2 -3 4 27 4 30 0 43 -2 28 -4z m533
-34 c13 -20 11 -103 -3 -117 -7 -7 -11 -37 -10 -74 2 -49 0 -59 -8 -45 -6 9
-8 22 -5 27 4 6 3 19 0 30 -5 17 -14 20 -58 18 l-52 -2 48 -3 47 -4 0 -40 c0
-39 0 -39 -40 -39 -22 0 -40 5 -40 10 0 6 -19 11 -42 12 l-43 1 45 7 45 7 -57
1 c-32 1 -58 6 -58 10 0 5 25 6 55 4 36 -3 55 0 55 7 0 6 -19 12 -42 12 -30 1
-36 3 -18 7 l25 5 -25 7 c-18 5 -3 9 52 14 43 4 82 5 88 1 5 -3 10 -1 10 4 0
6 -21 11 -47 11 l-48 0 3 69 4 70 41 3 c60 5 68 3 78 -13z m-433 -46 l-1 -48
-4 42 c-3 29 -9 43 -21 46 -12 3 -11 5 6 6 20 1 22 -3 20 -46z m40 -6 c2 -37
0 -47 -12 -47 -12 0 -16 12 -16 51 0 66 24 62 28 -4z m178 -114 c-11 -11 -19
6 -11 24 8 17 8 17 12 0 3 -10 2 -21 -1 -24z m335 -403 c6 -44 4 -45 -43 -48
-50 -3 -52 -2 -42 36 5 18 13 22 45 22 22 0 40 -4 40 -10z m255 -75 c8 -7 14
-34 14 -59 l0 -46 -65 0 -65 0 0 -65 0 -65 -69 0 -69 0 3 53 c1 28 3 86 4 127
l1 75 116 -3 c82 -2 121 -7 130 -17z"/>
<path d="M5073 960 c0 -25 2 -35 4 -22 2 12 2 32 0 45 -2 12 -4 2 -4 -23z"/>
<path d="M780 1249 c0 -5 5 -7 10 -4 6 3 10 8 10 11 0 2 -4 4 -10 4 -5 0 -10
-5 -10 -11z"/>
<path d="M2430 1256 c0 -2 7 -6 15 -10 8 -3 15 -1 15 4 0 6 -7 10 -15 10 -8 0
-15 -2 -15 -4z"/>
<path d="M2525 1250 c3 -5 8 -10 11 -10 2 0 4 5 4 10 0 6 -5 10 -11 10 -5 0
-7 -4 -4 -10z"/>
<path d="M2473 1200 c0 -25 2 -35 4 -22 2 12 2 32 0 45 -2 12 -4 2 -4 -23z"/>
<path d="M510 1152 c-5 -2 -10 -17 -10 -33 0 -16 -4 -29 -10 -29 -5 0 -10 -5
-10 -11 0 -5 4 -8 9 -4 5 3 12 1 16 -5 3 -5 -2 -10 -12 -10 -15 0 -16 -2 -3
-10 13 -9 13 -11 0 -20 -10 -7 10 -10 68 -10 l82 0 0 65 c0 45 -4 65 -12 66
-31 3 -109 4 -118 1z"/>
<path d="M894 965 l4 -190 121 -2 121 -1 0 59 0 59 -59 0 c-72 0 -73 2 -64
151 l6 107 -66 4 -66 3 3 -190z"/>
<path d="M1160 1139 c0 -5 5 -7 10 -4 6 3 10 8 10 11 0 2 -4 4 -10 4 -5 0 -10
-5 -10 -11z"/>
<path d="M1190 1143 c0 -4 5 -15 10 -23 8 -13 10 -13 10 2 0 9 -4 20 -10 23
-5 3 -10 3 -10 -2z"/>
<path d="M3075 1136 c-12 -9 -15 -25 -13 -61 l3 -50 45 -3 c84 -5 85 -5 85
-64 l0 -53 55 0 55 0 3 54 c2 36 -1 57 -10 63 -11 6 -10 10 1 17 11 7 10 10
-5 14 -18 4 -18 5 0 6 12 1 16 6 12 17 -3 9 -6 27 -6 40 0 23 -3 24 -52 22
l-53 -2 46 -3 c43 -4 47 -6 51 -33 2 -16 1 -27 -4 -24 -4 3 -8 14 -8 25 0 15
-7 19 -39 19 -21 0 -43 6 -50 13 -13 17 -95 19 -116 3z"/>
<path d="M3700 1080 l0 -70 -59 0 -59 0 -4 -49 c-1 -27 0 -47 5 -44 4 2 7 -1
7 -7 0 -7 17 -11 48 -9 26 1 52 0 58 -3 5 -4 34 -8 64 -9 l55 -3 3 62 c2 38 8
65 15 67 13 4 152 14 205 15 30 0 32 2 22 20 -6 11 -8 25 -5 31 4 5 8 21 9 33
3 22 -1 23 -87 30 -50 3 -132 6 -184 6 l-93 0 0 -70z m297 44 c-3 -3 -12 -4
-19 -1 -8 3 -5 6 6 6 11 1 17 -2 13 -5z m40 0 c-3 -3 -12 -4 -19 -1 -8 3 -5 6
6 6 11 1 17 -2 13 -5z m-34 -44 c3 -11 1 -18 -4 -14 -5 3 -9 12 -9 20 0 20 7
17 13 -6z m-13 -30 c13 -8 13 -10 -2 -10 -9 0 -20 5 -23 10 -8 13 5 13 25 0z"/>
<path d="M4473 1143 c-9 -3 -13 -26 -13 -64 l0 -59 65 0 65 0 0 59 c0 44 -4
60 -16 65 -18 7 -83 7 -101 -1z"/>
<path d="M4216 1098 c3 -85 -1 -79 57 -76 l52 3 3 58 3 57 -59 0 -58 0 2 -42z"/>
<path d="M1230 1119 c0 -5 5 -7 10 -4 6 3 10 8 10 11 0 2 -4 4 -10 4 -5 0 -10
-5 -10 -11z"/>
<path d="M1676 1112 c-2 -4 12 -6 32 -4 56 5 62 10 15 11 -23 1 -44 -3 -47 -7z"/>
<path d="M2000 1110 c0 -5 5 -10 10 -10 6 0 10 5 10 10 0 6 -4 10 -10 10 -5 0
-10 -4 -10 -10z"/>
<path d="M2018 998 c-1 -80 -2 -86 -8 -43 l-7 50 -1 -47 -2 -47 -42 -4 c-37
-3 -35 -4 15 -5 l57 -2 0 95 c0 52 -2 95 -5 95 -3 0 -6 -42 -7 -92z"/>
<path d="M5241 1074 c0 -11 3 -14 6 -6 3 7 2 16 -1 19 -3 4 -6 -2 -5 -13z"/>
<path d="M1156 1065 c4 -8 8 -15 10 -15 2 0 4 7 4 15 0 8 -4 15 -10 15 -5 0
-7 -7 -4 -15z"/>
<path d="M5298 1073 c7 -3 16 -2 19 1 4 3 -2 6 -13 5 -11 0 -14 -3 -6 -6z"/>
<path d="M5248 1043 c6 -2 18 -2 25 0 6 3 1 5 -13 5 -14 0 -19 -2 -12 -5z"/>
<path d="M4628 966 l-2 -51 -3 48 c-6 65 -25 60 -21 -5 l3 -53 60 -3 c43 -2
56 1 45 8 -8 5 -27 10 -42 10 -26 0 -28 3 -28 39 0 33 4 40 23 43 20 3 20 4
-5 9 -28 6 -28 5 -30 -45z"/>
<path d="M273 960 c0 -30 2 -43 4 -27 2 15 2 39 0 55 -2 15 -4 2 -4 -28z"/>
<path d="M4808 1003 c7 -3 16 -2 19 1 4 3 -2 6 -13 5 -11 0 -14 -3 -6 -6z"/>
<path d="M3147 903 c-9 -8 -44 -12 -124 -13 -35 0 -63 -5 -63 -10 0 -6 21 -10
46 -10 44 0 45 -1 42 -27 -3 -25 -7 -28 -47 -31 -24 -2 -48 1 -53 6 -6 6 10 7
41 4 47 -4 51 -3 51 17 0 18 -6 21 -40 21 -24 0 -43 5 -46 13 -3 8 -26 12 -71
12 -78 -1 -75 5 -66 -142 l6 -93 48 0 c47 0 48 1 55 35 3 19 4 46 2 60 -3 15
0 26 9 29 23 9 111 7 117 -2 3 -5 6 -67 7 -138 l1 -129 -126 3 -126 2 0 -65
c0 -47 4 -65 13 -64 6 1 37 1 69 0 48 -1 56 -4 53 -18 -2 -10 -6 -36 -8 -59
l-5 -41 59 -2 c42 -1 59 2 59 10 0 7 6 5 13 -6 12 -16 13 -11 9 37 -5 60 -2
64 43 69 29 4 30 3 36 -46 l6 -50 1 48 c1 27 7 47 13 47 8 0 10 -19 6 -60 -3
-33 -1 -63 4 -66 11 -7 12 -24 1 -24 -5 0 -14 10 -20 23 -10 20 -11 20 -12
-13 l-1 -35 -19 35 c-11 19 -20 31 -20 25 -1 -5 -5 -1 -10 10 -8 19 -9 19 -9
-2 -1 -13 -5 -23 -11 -23 -5 0 -10 -23 -10 -51 0 -31 4 -48 10 -44 6 3 10 -1
10 -9 0 -8 -6 -13 -12 -11 -10 4 -12 -11 -10 -60 3 -48 7 -65 18 -65 11 0 14
16 14 66 0 41 4 63 10 59 6 -3 10 -33 10 -66 l0 -59 96 0 96 0 -4 65 c-3 74
-3 75 77 75 61 0 65 -5 65 -86 l0 -54 60 0 60 0 1 68 c1 37 2 120 3 184 l1
116 58 4 59 3 -4 -57 -3 -58 135 -2 135 -3 0 -65 0 -65 -47 3 c-80 6 -88 0
-88 -69 l0 -59 65 0 64 0 3 63 3 62 63 3 62 3 0 124 0 124 -62 -1 c-35 0 -91
3 -125 7 l-63 8 0 107 0 108 50 4 c28 1 52 -1 54 -7 3 -5 5 -3 5 5 1 12 -12
15 -56 15 -32 0 -78 2 -103 4 -80 6 -79 7 -82 -60 l-3 -61 -64 -1 -64 -2 -1
65 -1 65 -59 0 -59 0 -1 -60 -1 -60 -67 -3 -66 -3 -4 61 c-1 34 -1 64 1 66 2
2 33 4 68 4 l63 0 0 60 0 60 65 0 66 0 -3 63 -3 62 -122 3 -123 3 0 -66 0 -66
-67 3 -68 3 -3 62 c-3 57 -19 92 -35 76z m-134 -110 c-18 -2 -48 -2 -65 0 -18
2 -4 4 32 4 36 0 50 -2 33 -4z m-166 -95 c-2 -13 -4 -3 -4 22 0 25 2 35 4 23
2 -13 2 -33 0 -45z m60 0 c-2 -13 -4 -3 -4 22 0 25 2 35 4 23 2 -13 2 -33 0
-45z m-7 -34 c0 -2 -7 -4 -15 -4 -8 0 -15 4 -15 10 0 5 7 7 15 4 8 -4 15 -8
15 -10z m401 -1 c-7 -13 -20 -17 -53 -14 -23 1 -46 6 -51 10 -4 4 15 5 43 1
40 -5 50 -4 46 7 -3 7 1 13 10 13 11 0 13 -4 5 -17z m2 -170 c4 -16 4 -36 -2
-91 -1 -9 -16 -12 -53 -10 l-53 3 -3 58 -3 57 55 0 c44 0 56 -4 59 -17z m237
7 c0 -5 -2 -10 -4 -10 -3 0 -8 5 -11 10 -3 6 -1 10 4 10 6 0 11 -4 11 -10z
m447 -226 c-3 -3 -12 -4 -19 -1 -8 3 -5 6 6 6 11 1 17 -2 13 -5z m-584 -34
c26 0 37 -4 37 -15 0 -11 -11 -15 -40 -15 -22 0 -40 5 -40 10 0 6 -9 10 -20
10 -11 0 -20 5 -20 11 0 7 9 9 23 5 12 -3 39 -6 60 -6z m-292 -47 c2 -23 0
-45 -4 -49 -4 -4 -7 17 -7 46 0 62 7 64 11 3z m328 0 c3 -2 -21 -3 -52 -2 -31
1 -54 5 -52 9 5 7 96 1 104 -7z m-352 -25 c-3 -8 -6 -5 -6 6 -1 11 2 17 5 13
3 -3 4 -12 1 -19z m246 5 c-7 -2 -21 -2 -30 0 -10 3 -4 5 12 5 17 0 24 -2 18
-5z m90 0 c-13 -2 -33 -2 -45 0 -13 2 -3 4 22 4 25 0 35 -2 23 -4z m-5 -20
c-15 -2 -42 -2 -60 0 -18 2 -6 4 27 4 33 0 48 -2 33 -4z"/>
<path d="M3960 830 l0 -60 84 0 c106 0 182 10 164 21 -10 7 -10 9 0 9 6 0 12
7 12 15 0 14 14 20 75 29 17 2 6 3 -22 2 -48 -3 -55 0 -52 20 2 17 -36 24
-143 24 l-118 0 0 -60z"/>
<path d="M4472 833 l3 -58 53 -1 52 -1 0 58 0 59 -55 0 -56 0 3 -57z"/>
<path d="M5990 765 l0 -125 65 0 65 0 0 125 0 125 -65 0 -65 0 0 -125z"/>
<path d="M565 870 c4 -6 11 -8 16 -5 14 9 11 15 -7 15 -8 0 -12 -5 -9 -10z"/>
<path d="M600 861 c0 -11 -5 -23 -11 -27 -6 -3 -8 -17 -5 -29 3 -13 2 -27 -4
-30 -6 -4 -10 8 -10 29 0 19 -3 37 -8 40 -4 2 -6 -14 -4 -36 3 -25 1 -38 -5
-35 -6 4 -23 11 -38 17 -27 10 -27 11 -9 26 17 13 15 14 -31 9 -82 -10 -105
-16 -99 -26 3 -5 -4 -9 -15 -9 -12 0 -21 -4 -21 -8 0 -5 40 -6 88 -4 l88 4 -4
-65 -4 -64 33 -6 c19 -4 69 -9 112 -13 42 -4 77 -10 77 -13 0 -3 -20 -5 -45
-3 l-45 4 0 -50 0 -50 53 -4 c28 -2 53 -4 54 -3 1 0 5 56 9 123 l7 122 -66 0
c-36 0 -69 5 -72 10 -4 6 -11 8 -16 5 -5 -4 -9 10 -9 29 0 20 5 36 10 36 6 0
10 9 10 20 0 11 -4 20 -10 20 -5 0 -10 -9 -10 -19z m-137 -68 c-13 -2 -33 -2
-45 0 -13 2 -3 4 22 4 25 0 35 -2 23 -4z"/>
<path d="M4258 873 c12 -2 32 -2 45 0 12 2 2 4 -23 4 -25 0 -35 -2 -22 -4z"/>
<path d="M377 850 c-5 -18 -1 -20 51 -18 l57 1 -45 7 c-42 7 -40 7 25 9 86 2
71 17 -20 20 -55 1 -63 -1 -68 -19z"/>
<path d="M3801 854 c0 -11 3 -14 6 -6 3 7 2 16 -1 19 -3 4 -6 -2 -5 -13z"/>
<path d="M265 840 c4 -6 11 -8 16 -5 14 9 11 15 -7 15 -8 0 -12 -5 -9 -10z"/>
<path d="M611 814 c0 -11 3 -14 6 -6 3 7 2 16 -1 19 -3 4 -6 -2 -5 -13z"/>
<path d="M3793 816 c-10 -11 -9 -15 2 -20 10 -4 15 1 15 14 0 23 -1 24 -17 6z"/>
<path d="M265 810 c3 -5 10 -10 16 -10 5 0 9 5 9 10 0 6 -7 10 -16 10 -8 0
-12 -4 -9 -10z"/>
<path d="M2300 810 c0 -5 23 -10 50 -10 28 0 50 5 50 10 0 6 -22 10 -50 10
-27 0 -50 -4 -50 -10z"/>
<path d="M3731 794 c0 -11 3 -14 6 -6 3 7 2 16 -1 19 -3 4 -6 -2 -5 -13z"/>
<path d="M4280 790 l-45 -7 42 -1 c23 -1 45 3 48 8 3 6 5 9 3 8 -2 0 -23 -4
-48 -8z"/>
<path d="M2338 783 c12 -2 32 -2 45 0 12 2 2 4 -23 4 -25 0 -35 -2 -22 -4z"/>
<path d="M4328 703 l4 -63 64 0 64 0 0 60 c0 67 7 62 -90 64 l-45 1 3 -62z"/>
<path d="M4720 701 l0 -71 -57 -1 c-32 -1 -50 -3 -40 -6 9 -2 17 -9 17 -15 0
-6 6 -6 15 2 9 7 15 8 15 2 0 -5 11 -9 25 -8 14 0 25 7 25 14 0 9 30 12 119
12 132 0 131 1 131 -77 l0 -33 -55 0 c-53 0 -55 -1 -56 -27 0 -16 -2 -45 -3
-66 l-3 -39 58 4 59 3 0 -67 c0 -75 -6 -70 80 -70 17 0 35 1 40 1 6 1 10 28
10 61 l0 59 67 3 c77 3 71 -9 58 128 -4 47 -11 94 -15 105 -5 11 -6 -6 -3 -37
l6 -58 -52 0 -51 0 -1 40 c-2 50 -2 51 -19 77 -7 11 -19 19 -26 16 -17 -6 -34
29 -34 71 0 29 -4 36 -20 36 -16 0 -20 -7 -20 -37 0 -21 5 -45 10 -53 6 -10
10 -11 10 -2 0 6 5 12 10 12 6 0 10 -7 10 -16 0 -10 -7 -14 -22 -12 -20 3 -23
10 -26 56 l-3 52 -47 1 c-26 0 -84 3 -129 5 l-83 6 0 -71z m347 -248 c-3 -10
-5 -2 -5 17 0 19 2 27 5 18 2 -10 2 -26 0 -35z m-87 -23 c0 -5 -2 -10 -4 -10
-3 0 -8 5 -11 10 -3 6 -1 10 4 10 6 0 11 -4 11 -10z m80 -36 c0 -2 -7 -4 -15
-4 -8 0 -15 4 -15 10 0 5 7 7 15 4 8 -4 15 -8 15 -10z"/>
<path d="M5064 718 c1 -57 21 -55 22 2 l2 45 -7 -45 -7 -45 -6 43 -5 42 1 -42z"/>
<path d="M5500 670 c0 -5 5 -10 11 -10 5 0 7 5 4 10 -3 6 -8 10 -11 10 -2 0
-4 -4 -4 -10z"/>
<path d="M4467 634 c-4 -4 -7 -85 -7 -181 0 -152 -2 -173 -16 -173 -13 0 -15
9 -12 44 3 41 1 45 -22 49 -22 5 -23 4 -7 -8 11 -8 17 -26 17 -49 0 -30 4 -38
27 -47 15 -5 54 -9 87 -7 l60 3 -3 53 c-1 32 2 52 8 52 6 0 11 -19 11 -42 0
-53 15 -81 30 -58 13 20 13 90 0 90 -5 0 -11 -19 -11 -42 -2 -33 -3 -36 -6
-14 -3 15 -2 40 2 53 5 21 8 23 21 12 11 -9 15 -26 12 -55 -3 -38 -1 -42 21
-42 13 0 19 3 14 7 -6 3 -13 28 -15 55 -4 28 -2 43 3 35 15 -24 24 1 27 78 l4
75 -41 -4 -41 -4 0 49 c0 59 -19 54 -22 -6 -1 -35 -2 -32 -7 18 l-6 60 -60 3
c-34 2 -64 0 -68 -4z"/>
<path d="M0 315 l0 -315 125 0 125 0 0 60 0 60 -37 0 c-82 0 -80 -2 -88 131
-5 87 -4 123 5 134 7 9 11 37 8 75 -1 33 0 60 4 60 4 0 9 19 11 43 l4 42 1
-41 2 -42 45 -4 45 -3 0 57 0 58 -125 0 -125 0 0 -315z m223 298 c-13 -2 -33
-2 -45 0 -13 2 -3 4 22 4 25 0 35 -2 23 -4z"/>
<path d="M481 614 c0 -11 3 -14 6 -6 3 7 2 16 -1 19 -3 4 -6 -2 -5 -13z"/>
<path d="M1546 614 c-6 -15 -4 -15 11 -3 10 7 20 15 22 16 2 2 -3 3 -11 3 -9
0 -19 -7 -22 -16z"/>
<path d="M1636 615 c4 -8 8 -15 10 -15 2 0 4 7 4 15 0 8 -4 15 -10 15 -5 0 -7
-7 -4 -15z"/>
<path d="M5874 616 c-3 -7 -4 -33 -2 -57 l3 -44 45 -1 c67 0 70 2 70 57 0 36
-4 51 -16 56 -9 3 -20 0 -25 -8 -6 -10 -9 -10 -9 -1 0 17 -59 16 -66 -2z"/>
<path d="M4270 611 l-55 -6 6 -45 6 -45 1 43 2 42 44 0 45 0 4 -42 c4 -38 4
-37 4 10 0 28 -1 51 -1 50 -1 -1 -26 -4 -56 -7z"/>
<path d="M760 450 l0 -59 33 -6 c19 -4 47 -5 63 -3 28 3 29 5 32 66 l3 62 -66
0 -65 0 0 -60z"/>
<path d="M1158 472 c-2 -15 -1 -38 3 -52 7 -24 7 -24 8 -2 1 12 1 25 0 29 -1
11 32 22 68 22 25 1 31 4 26 17 -4 11 -8 12 -13 4 -6 -9 -9 -9 -15 0 -6 9 -10
9 -16 -1 -6 -10 -9 -11 -9 -1 0 6 -11 12 -24 12 -18 0 -25 -6 -28 -28z m42 14
c0 -2 -7 -6 -15 -10 -8 -3 -15 -1 -15 4 0 6 7 10 15 10 8 0 15 -2 15 -4z"/>
<path d="M6028 493 c17 -2 47 -2 65 0 17 2 3 4 -33 4 -36 0 -50 -2 -32 -4z"/>
<path d="M6028 473 c17 -2 47 -2 65 0 17 2 3 4 -33 4 -36 0 -50 -2 -32 -4z"/>
<path d="M1200 449 c0 -5 4 -7 10 -4 7 4 7 -3 0 -20 -12 -32 -12 -35 -1 -35 5
0 11 8 14 18 2 9 8 25 12 35 5 13 2 17 -14 17 -12 0 -21 -5 -21 -11z"/>
<path d="M1243 425 c-9 -29 -9 -35 3 -35 9 0 14 12 14 35 0 19 -1 35 -3 35 -2
0 -8 -16 -14 -35z"/>
<path d="M6028 453 c17 -2 47 -2 65 0 17 2 3 4 -33 4 -36 0 -50 -2 -32 -4z"/>
<path d="M1180 430 c0 -5 5 -10 10 -10 6 0 10 5 10 10 0 6 -4 10 -10 10 -5 0
-10 -4 -10 -10z"/>
<path d="M4217 373 c-9 -8 -9 -96 -1 -117 8 -20 96 -22 112 -3 5 6 12 35 13
64 4 45 1 53 -16 57 -28 8 -100 7 -108 -1z"/>
<path d="M328 363 c7 -3 16 -2 19 1 4 3 -2 6 -13 5 -11 0 -14 -3 -6 -6z"/>
<path d="M900 308 c0 -40 4 -58 9 -49 5 8 14 10 22 6 9 -6 11 -3 6 9 -4 10 -7
35 -7 57 0 28 -4 39 -15 39 -12 0 -15 -14 -15 -62z"/>
<path d="M968 325 c3 -28 0 -45 -7 -45 -6 0 -12 19 -13 43 -1 38 -2 39 -5 8
-6 -43 16 -100 29 -77 5 8 14 13 22 10 9 -3 13 10 15 51 2 51 1 55 -21 55 -21
0 -23 -4 -20 -45z m32 -5 c0 -22 -4 -40 -10 -40 -5 0 -10 18 -10 40 0 22 5 40
10 40 6 0 10 -18 10 -40z"/>
<path d="M273 315 c0 -27 2 -38 4 -22 2 15 2 37 0 50 -2 12 -4 0 -4 -28z"/>
<path d="M2532 323 c-2 -37 -5 -42 -29 -46 l-28 -4 28 -2 c32 -1 40 13 34 61
-3 30 -4 30 -5 -9z"/>
<path d="M3110 321 c0 -22 5 -43 10 -46 6 -4 10 12 10 39 0 25 -4 46 -10 46
-5 0 -10 -18 -10 -39z"/>
<path d="M2448 273 c7 -3 16 -2 19 1 4 3 -2 6 -13 5 -11 0 -14 -3 -6 -6z"/>
<path d="M1541 251 c-5 -4 -12 -61 -16 -128 l-7 -123 71 0 72 0 -3 127 -3 127
-53 1 c-29 1 -56 -1 -61 -4z"/>
<path d="M2815 250 c-2 -3 -6 -60 -10 -127 l-8 -123 73 0 72 0 -7 118 c-4 64
-10 121 -15 125 -9 10 -100 15 -105 7z"/>
<path d="M1006 213 c9 -85 -3 -78 137 -81 l127 -3 0 61 0 60 -134 0 -134 0 4
-37z"/>
<path d="M2550 190 l0 -60 65 0 65 0 0 60 0 60 -65 0 -65 0 0 -60z"/>
<path d="M4720 125 l0 -125 125 0 125 0 0 65 0 65 -65 0 -65 0 0 60 0 60 -60
0 -60 0 0 -125z"/>
<path d="M4320 205 c0 -22 -4 -25 -40 -25 -53 0 -51 -17 3 -21 l42 -4 3 38 c1
20 0 37 -3 37 -3 0 -5 -11 -5 -25z"/>
<path d="M4220 200 c0 -5 5 -10 11 -10 5 0 7 5 4 10 -3 6 -8 10 -11 10 -2 0
-4 -4 -4 -10z"/>
<path d="M940 170 c0 -5 10 -10 23 -10 18 0 19 2 7 10 -19 13 -30 13 -30 0z"/>
<path d="M4220 149 c0 -11 4 -18 10 -14 5 3 7 12 3 20 -7 21 -13 19 -13 -6z"/>
<path d="M3590 148 c0 -4 21 -8 48 -7 52 1 48 6 -10 11 -21 2 -38 0 -38 -4z"/>
<path d="M905 140 c3 -5 8 -10 11 -10 2 0 4 5 4 10 0 6 -5 10 -11 10 -5 0 -7
-4 -4 -10z"/>
<path d="M1853 123 l-63 -4 0 -59 0 -60 59 0 59 0 4 65 c1 36 3 64 3 63 0 -1
-28 -3 -62 -5z"/>
<path d="M5107 124 c-4 -4 -7 -34 -7 -66 l0 -58 60 0 61 0 -3 63 -3 62 -50 3
c-28 2 -54 0 -58 -4z"/>
<path d="M520 60 c0 -33 4 -60 10 -60 6 0 10 27 10 60 0 33 -4 60 -10 60 -6 0
-10 -27 -10 -60z"/>
<path d="M553 60 c0 -36 2 -50 4 -32 2 17 2 47 0 65 -2 17 -4 3 -4 -33z"/>
<path d="M1423 60 c0 -36 2 -50 4 -32 2 17 2 47 0 65 -2 17 -4 3 -4 -33z"/>
<path d="M3763 60 c0 -36 2 -50 4 -32 2 17 2 47 0 65 -2 17 -4 3 -4 -33z"/>
<path d="M3793 60 c0 -36 2 -50 4 -32 2 17 2 47 0 65 -2 17 -4 3 -4 -33z"/>
</g>
</svg>
